<svg xmlns="http://www.w3.org/2000/svg" viewBox="0 0 502.22 502.22"><path d="M254.81,431.93c-47.45,0-68.08-27-63.86-48.88s0-46.56,0-46.56C185.76,350,177.77,354.21,171.09,355a21.38,21.38,0,0,1-18.41-7.23c-18.82-20.94,4.73-52.52,18.5-67.75,4.94-5.48,8.62-8.83,8.62-8.83,70.88,30,152.75,9,152.75,9,.71,2.95,1.38,5.83,2,8.67C360.58,408.72,301.18,431.93,254.81,431.93Z" transform="translate(-4.78 -5.07)" style="fill:#ef0044"/><g style="opacity:0.30000000000000004"><path d="M334.54,288.87c-.61-2.84-1.28-5.72-2-8.67h-.07l-.12,0-.07,0-.21.05-.13,0-.22,0-.25.06-.21.05-.36.08-.25.06-.4.09-.34.08-.36.08-.39.09-.53.11-.3.06-.74.16-.31.07-.82.16-.35.08-.84.16-.44.09-.63.12-.49.1-.93.17-.49.09-1,.19-.56.1-1,.17-.73.12-.68.12-1.09.18-.68.12-1.17.18h0c-27.73,4.4-84.53,9.28-135.61-12.33,0,0-3.68,3.35-8.62,8.83.31,5.09,3.77,11.09,14.69,16.77,26.3,13.67,68.94,12.1,68.94,12.1h0c59,2.08,67.52,86.79,9.92,100a109,109,0,0,1-24.31,2.6c-23.43,0-39.82-7.09-49.43-16.79,3.69,18.77,24.58,37.19,63.8,37.19C301.18,431.93,360.58,408.72,334.54,288.87Z" transform="translate(-4.78 -5.07)" style="fill:#000072"/></g><g style="opacity:0.7000000000000001"><path d="M196.25,385.4c3.13-16.28,1.5-37.55.46-47.41a3.18,3.18,0,0,0-5-2.34,3.11,3.11,0,0,0-.81.84c.8,9.2,2.51,33.54,0,46.56-3,15.69,6.7,34,29.87,43.08C201.47,416.47,193.46,399.84,196.25,385.4Z" transform="translate(-4.78 -5.07)" style="fill:#fff"/></g><g style="opacity:0.7000000000000001"><path d="M332.55,280.2s-81.87,21-152.75-9c0,0-3.68,3.35-8.62,8.83-13.77,15.23-37.32,46.81-18.5,67.75A22.34,22.34,0,0,0,163,354.36a22.93,22.93,0,0,1-5-4.21c-9-10-8.31-22.45-3.63-34.37l.15.1c2.78,1.43,7.31-1.82,10.11-7.27,2.63-5.11,2.81-10.33.52-12.14a155.57,155.57,0,0,1,11.35-14.07c4.95-5.47,8.63-8.83,8.63-8.83,61,25.82,130.2,13.83,148.25,10C333.09,282.46,332.83,281.34,332.55,280.2Z" transform="translate(-4.78 -5.07)" style="fill:#fff"/></g><path d="M254.82,434c-25.5,0-45.93-7.73-57.52-21.77-7.25-8.78-10.29-19.55-8.37-29.57,2.78-14.4,1.81-30.17.89-38.95-5.6,9.7-12.91,12.69-18.48,13.38a23.46,23.46,0,0,1-20.19-7.9c-11.14-12.4-9.84-30.19,3.77-51.45a157,157,0,0,1,23.5-28,2,2,0,0,1,2.18-.38c36.22,15.32,75.43,16.93,102,15.58,28.81-1.46,49.29-6.64,49.49-6.69a2,2,0,0,1,1.57.23,2,2,0,0,1,.94,1.28c13.86,57.25,10.55,99.42-9.84,125.34C305.9,429,276.32,434,254.82,434ZM191,334.43h.21a2,2,0,0,1,1.82,1.7c.18,1,4.24,25.26,0,47.29-1.69,8.81,1,18.34,7.5,26.16,10.8,13.08,30.1,20.28,54.35,20.28,20.59,0,48.86-4.74,66.66-27.36C340.81,377.94,344,337.62,331,282.67A294.68,294.68,0,0,1,282.86,289c-26.67,1.36-66-.22-102.62-15.38-6.87,6.62-48.11,48.22-26,72.8A19.34,19.34,0,0,0,170.83,353c8.06-1,14.19-6.8,18.2-17.24A2.07,2.07,0,0,1,191,334.43Z" transform="translate(-4.78 -5.07)" style="fill:#000072"/><path d="M320.89,289.56c-25.2,13.1-66.08,11.59-66.08,11.59s-40.86,1.51-66.06-11.59-8.95-28.06-8.95-28.06c-3.29-7.78.12-14,3-17.36a19.5,19.5,0,0,1,2.94-2.9s17.57,26.62,69.08,26.64h.08c51.51,0,69.07-26.64,69.07-26.64a19.72,19.72,0,0,1,3,3c2.82,3.42,6.18,9.57,2.9,17.3C329.83,261.5,346.08,276.45,320.89,289.56Z" transform="translate(-4.78 -5.07)" style="fill:#fff"/><g style="opacity:0.30000000000000004"><path d="M326.93,244.2a45.6,45.6,0,0,1-2.92,4.68c-9.49,13.32-29,26.65-69.15,26.65s-59.67-13.33-69.16-26.65a43.31,43.31,0,0,1-2.94-4.74,19.5,19.5,0,0,1,2.94-2.9s17.57,26.62,69.08,26.64h.08c51.51,0,69.07-26.64,69.07-26.64A19.72,19.72,0,0,1,326.93,244.2Z" transform="translate(-4.78 -5.07)" style="fill:#000072"/></g><g style="opacity:0.30000000000000004"><path d="M330.76,251.62a17,17,0,0,1-.93,2.83,14.45,14.45,0,0,1,1.33,1.46A14.91,14.91,0,0,0,330.76,251.62Z" transform="translate(-4.78 -5.07)" style="fill:#000072"/></g><g style="opacity:0.30000000000000004"><path d="M179.8,254.45a19.05,19.05,0,0,1-.93-2.83,15.28,15.28,0,0,0-.39,4.29A15.29,15.29,0,0,1,179.8,254.45Z" transform="translate(-4.78 -5.07)" style="fill:#000072"/></g><g style="opacity:0.30000000000000004"><path d="M320.89,282.5c-25.2,13.1-66.08,11.59-66.08,11.59S214,295.6,188.75,282.5c-8.57-4.45-12.34-9.12-13.59-13.34-1.57,5.52-.18,13.23,13.59,20.4,25.2,13.1,66.06,11.59,66.06,11.59s40.88,1.51,66.08-11.59c13.77-7.17,15.16-14.88,13.59-20.4C333.22,273.38,329.45,278.05,320.89,282.5Z" transform="translate(-4.78 -5.07)" style="fill:#000072"/></g><g style="opacity:0.30000000000000004"><path d="M201.87,256.54s4.63,3.19,2.65,12.95a18.12,18.12,0,0,0,.86,10.58c2.39,5.78,7.9,12.83,20.51,11.63C249.17,289.5,250.69,247.62,201.87,256.54Z" transform="translate(-4.78 -5.07)" style="fill:#000072"/></g><g style="opacity:0.30000000000000004"><path d="M307.69,256.54s-4.63,3.19-2.65,12.95a18.12,18.12,0,0,1-.87,10.58c-2.38,5.78-7.9,12.83-20.5,11.63C260.39,289.5,258.87,247.62,307.69,256.54Z" transform="translate(-4.78 -5.07)" style="fill:#000072"/></g><path d="M259.11,303.27c-2.34,0-3.85,0-4.29-.06-2.56.08-41.93,1.22-67-11.83-9.17-4.77-14.24-10.41-15.09-16.78s2.85-11.47,4.71-13.58c-3.5-10.12,3-18.39,7.05-21.43a2.06,2.06,0,0,1,1.59-.38,2,2,0,0,1,1.36.89c0,.06,4.4,6.5,14.83,12.85,9.64,5.87,26.58,12.87,52.57,12.87s42.93-7,52.56-12.87c10.43-6.35,14.79-12.79,14.84-12.85a2,2,0,0,1,2.94-.51c4.08,3,10.55,11.31,7.06,21.43,1.85,2.11,5.55,7.2,4.7,13.58s-5.92,12-15.09,16.78C301,302.19,270.44,303.27,259.11,303.27Zm-4.29-4.18h.07c.41,0,40.63,1.33,65.05-11.36,7.89-4.1,12.23-8.69,12.9-13.64.83-6.12-4.35-11-4.41-11.08a2.06,2.06,0,0,1-.49-2.31c3.33-7.87-1.18-13.88-3.73-16.46a58.83,58.83,0,0,1-14.44,12.07c-10.1,6.21-27.84,13.62-54.91,13.63h-.08c-27.08,0-44.81-7.42-54.92-13.63a59,59,0,0,1-14.44-12.07c-2.54,2.57-7.06,8.58-3.72,16.46a2.06,2.06,0,0,1-.5,2.32s-5.24,5-4.41,11.07c.68,5,5,9.54,12.91,13.64,24.42,12.7,64.64,11.37,65,11.36Z" transform="translate(-4.78 -5.07)" style="fill:#000072"/><path d="M181.51,260.36l.3.4.34.47c.25.3.49.62.75.93.51.61,1.06,1.21,1.64,1.78s1.21,1.12,1.85,1.66,1.34,1,2.06,1.65l0,0a.49.49,0,0,1,.06.69.46.46,0,0,1-.37.18,9.58,9.58,0,0,1-2.87-.41,13.32,13.32,0,0,1-2.69-1.16,15.86,15.86,0,0,1-2.42-1.68,12.93,12.93,0,0,1-1.08-1c-.17-.18-.35-.36-.51-.56s-.31-.38-.51-.66a2.06,2.06,0,0,1,3.35-2.39Z" transform="translate(-4.78 -5.07)" style="fill:#000072"/><path d="M331.54,262.65a7,7,0,0,1-.51.66c-.16.2-.33.38-.5.56a15.28,15.28,0,0,1-3.51,2.7,13,13,0,0,1-2.68,1.16,9.67,9.67,0,0,1-2.87.41.5.5,0,0,1-.49-.5.47.47,0,0,1,.18-.37l0,0c.72-.6,1.42-1.08,2.06-1.65s1.27-1.08,1.85-1.66,1.13-1.17,1.64-1.78c.26-.31.51-.63.75-.93l.35-.47.29-.4.07-.1a2.06,2.06,0,0,1,3.35,2.39Z" transform="translate(-4.78 -5.07)" style="fill:#000072"/><path d="M240.68,144.17s-17.26-35.43-48.22-50.88a11.59,11.59,0,0,0-16,6.25c-7.24,19.14-18.15,60.17,4.91,93C181.35,192.49,198.39,158.07,240.68,144.17Z" transform="translate(-4.78 -5.07)" style="fill:#fa9a2c"/><g style="opacity:0.30000000000000004"><path d="M192.46,93.29a11.57,11.57,0,0,0-10.55.09l.79.39c22.91,11.58,28.6,41.54,11.84,61a105.9,105.9,0,0,0-18.16,29.58,71.09,71.09,0,0,0,5,8.15s17-34.42,59.33-48.32C240.68,144.17,223.42,108.74,192.46,93.29Z" transform="translate(-4.78 -5.07)" style="fill:#000072"/></g><g style="opacity:0.7000000000000001"><path d="M180.55,101.31a11.61,11.61,0,0,1,13.6-7.15c-.56-.3-1.12-.59-1.69-.87a11.59,11.59,0,0,0-16,6.25c-7.24,19.14-18.15,60.17,4.91,93,0,0,.44-.9,1.36-2.45C163.33,158,173.62,119.63,180.55,101.31Z" transform="translate(-4.78 -5.07)" style="fill:#fff"/></g><path d="M181.35,194.55a2.07,2.07,0,0,1-1.69-.87c-10.32-14.69-15.1-32.48-14.18-52.87.75-17,5.33-32.21,9-42a13.66,13.66,0,0,1,18.87-7.37c31.23,15.58,48.43,50.35,49.15,51.82a2,2,0,0,1,0,1.7,2.05,2.05,0,0,1-1.25,1.16c-40.92,13.44-58,46.94-58.13,47.28a2,2,0,0,1-1.69,1.13Zm5.93-100.42a9.52,9.52,0,0,0-8.92,6.14c-7.53,19.9-16.9,57.33,2.83,88.29a101.39,101.39,0,0,1,12.45-16.41A110.46,110.46,0,0,1,237.74,143c-4.22-7.73-20.5-35-46.2-47.87A9.49,9.49,0,0,0,187.28,94.13Z" transform="translate(-4.78 -5.07)" style="fill:#000072"/><path d="M227.09,142.93s-11.71-24.27-32.75-34.83a7.89,7.89,0,0,0-10.91,4.3c-4.94,13.11-12.39,41.23,3.27,63.68C186.7,176.08,198.32,152.48,227.09,142.93Z" transform="translate(-4.78 -5.07)" style="fill:#f471ac"/><g style="opacity:0.30000000000000004"><path d="M184.61,121.81a7.87,7.87,0,0,1,10.9-4.3c13.22,6.63,22.75,18.67,28,26.71,1.16-.46,2.34-.89,3.56-1.29,0,0-11.71-24.27-32.75-34.83a7.89,7.89,0,0,0-10.91,4.3c-3.59,9.53-8.5,27-4.9,44.44C177.84,142.75,181.67,129.62,184.61,121.81Z" transform="translate(-4.78 -5.07)" style="fill:#000072"/></g><path d="M186.7,178.13a2.05,2.05,0,0,1-1.69-.88c-15.93-22.84-9-50.89-3.5-65.58a9.94,9.94,0,0,1,13.75-5.41C216.69,117,228.45,141,229,142a2.06,2.06,0,0,1-1.21,2.85C200.18,154,188.66,176.76,188.55,177a2.08,2.08,0,0,1-1.69,1.14Zm4.13-68.81a5.84,5.84,0,0,0-5.47,3.8c-5,13.33-11.26,38.22,1.23,59a75.24,75.24,0,0,1,37.56-30.35c-3.31-6-14.09-23.48-30.74-31.83A5.76,5.76,0,0,0,190.83,109.32Z" transform="translate(-4.78 -5.07)" style="fill:#000072"/><path d="M269,144.17s17.26-35.43,48.22-50.88a11.59,11.59,0,0,1,16,6.25c7.24,19.14,18.15,60.17-4.91,93C328.36,192.49,311.32,158.07,269,144.17Z" transform="translate(-4.78 -5.07)" style="fill:#fa9a2c"/><g style="opacity:0.30000000000000004"><path d="M317.25,93.29a11.57,11.57,0,0,1,10.55.09l-.78.39c-22.92,11.58-28.61,41.54-11.85,61a105.9,105.9,0,0,1,18.16,29.58,71.09,71.09,0,0,1-5,8.15s-17-34.42-59.33-48.32C269,144.17,286.29,108.74,317.25,93.29Z" transform="translate(-4.78 -5.07)" style="fill:#000072"/></g><path d="M328.36,194.55h-.15a2,2,0,0,1-1.69-1.13c-.17-.34-17.21-33.84-58.13-47.28a2.07,2.07,0,0,1-1.21-2.86c.72-1.47,17.92-36.24,49.15-51.82a13.65,13.65,0,0,1,18.87,7.37c3.7,9.78,8.28,25,9,42,.91,20.39-3.87,38.18-14.19,52.87A2.07,2.07,0,0,1,328.36,194.55ZM272,143a110.46,110.46,0,0,1,44.1,29.15,101.39,101.39,0,0,1,12.45,16.41c19.73-31,10.36-68.39,2.83-88.29a9.42,9.42,0,0,0-5.43-5.49,9.6,9.6,0,0,0-7.75.35C292.47,108,276.19,135.27,272,143Z" transform="translate(-4.78 -5.07)" style="fill:#000072"/><path d="M282.62,142.93s11.71-24.27,32.75-34.83a7.89,7.89,0,0,1,10.91,4.3c4.94,13.11,12.39,41.23-3.27,63.68C323,176.08,311.39,152.48,282.62,142.93Z" transform="translate(-4.78 -5.07)" style="fill:#f471ac"/><g style="opacity:0.30000000000000004"><path d="M325.1,121.81a7.87,7.87,0,0,0-10.9-4.3c-13.22,6.63-22.75,18.67-28,26.71-1.16-.46-2.34-.89-3.56-1.29,0,0,11.71-24.27,32.75-34.83a7.89,7.89,0,0,1,10.91,4.3c3.59,9.53,8.5,27,4.91,44.44C331.88,142.75,328,129.62,325.1,121.81Z" transform="translate(-4.78 -5.07)" style="fill:#000072"/></g><path d="M323,178.14h-.16a2.08,2.08,0,0,1-1.69-1.14c-.11-.23-11.63-23-39.19-32.11a2.12,2.12,0,0,1-1.25-1.15,2.06,2.06,0,0,1,0-1.7c.49-1,12.26-25,33.68-35.77a9.94,9.94,0,0,1,13.75,5.41c5.54,14.69,12.43,42.74-3.5,65.58A2.06,2.06,0,0,1,323,178.14Zm-37.45-36.37a75.24,75.24,0,0,1,37.56,30.35c12.49-20.78,6.25-45.67,1.23-59a5.79,5.79,0,0,0-3.35-3.4,5.71,5.71,0,0,0-4.7.22C299.63,118.31,288.86,135.8,285.56,141.77Z" transform="translate(-4.78 -5.07)" style="fill:#000072"/><path d="M324,241.24c-9.49,13.32-29,26.64-69.15,26.64s-59.67-13.32-69.16-26.64a46.19,46.19,0,0,1-7.81-18.82,49.23,49.23,0,0,1-.2-15.66c3.4-23.22,12.22-39.58,22.75-51.11,29.11-31.86,79.72-31.86,108.83,0,10.53,11.53,19.35,27.89,22.75,51.11A47.55,47.55,0,0,1,324,241.24Z" transform="translate(-4.78 -5.07)" style="fill:#fa9a2c"/><path d="M331.82,222.4s-11.45-9.46-28-1.07a24.79,24.79,0,0,1-31.27-7.12c-5.2-7-10.44-17.66-14.56-33.69a3.27,3.27,0,0,0-6.33,0c-4.12,16-9.36,26.65-14.56,33.69a24.79,24.79,0,0,1-31.27,7.12c-16.52-8.39-28,1.07-28,1.07v0a46.19,46.19,0,0,0,7.81,18.82c9.49,13.32,29,26.64,69.16,26.64s59.66-13.32,69.15-26.64a46.19,46.19,0,0,0,7.81-18.82Z" transform="translate(-4.78 -5.07)" style="fill:#fff"/><g style="opacity:0.30000000000000004"><path d="M332,206.76c-3.21-21.95-11.27-37.76-21-49.16,5.36,9.58,9.53,21.3,11.63,35.63a47.54,47.54,0,0,1-8,34.48c-9.48,13.33-29,26.65-69.15,26.65-34,0-53.18-9.54-64-20.55a45.12,45.12,0,0,0,4.28,7.43c9.49,13.32,29,26.64,69.16,26.64s59.66-13.32,69.15-26.64A47.55,47.55,0,0,0,332,206.76Z" transform="translate(-4.78 -5.07)" style="fill:#000072"/></g><g style="opacity:0.7000000000000001"><path d="M309.27,155.65c-29.11-31.86-79.72-31.86-108.83,0-10.53,11.53-19.35,27.89-22.75,51.11a49.23,49.23,0,0,0,.2,15.66,46.19,46.19,0,0,0,7.81,18.82c.79,1.1,1.64,2.2,2.57,3.29a46.2,46.2,0,0,1-6.85-17.41,49.23,49.23,0,0,1-.2-15.66c3.25-22.2,11.46-38.13,21.37-49.56,2.27,1.46,7.33-.38,11.84-4.44,4.06-3.66,6.38-7.94,5.92-10.52,29.21-17.53,68.26-13.06,92.45,13.42,1.09,1.19,2.17,2.44,3.22,3.75A81,81,0,0,0,309.27,155.65Z" transform="translate(-4.78 -5.07)" style="fill:#fff"/></g><g style="opacity:0.30000000000000004"><path d="M278.3,223.37s-2.33,7.72-10.52,7.72-8.26-9.76-8.26-9.76h-9.41s-.06,9.76-8.25,9.76-10.52-7.72-10.52-7.72-6.37,13.71,4.88,17.86,18.6-2.26,18.6-2.26,7.35,6.42,18.6,2.26S278.3,223.37,278.3,223.37Z" transform="translate(-4.78 -5.07)" style="fill:#000072"/></g><path d="M254.86,269.94c-18.61,0-34.4-2.86-46.93-8.51-10.14-4.57-18.18-11-23.9-19a49.35,49.35,0,0,1-8.38-36c3.09-21.12,10.92-38.68,23.27-52.19a76,76,0,0,1,111.87,0c12.35,13.51,20.18,31.07,23.27,52.19h0a49.35,49.35,0,0,1-8.38,36c-5.71,8-13.76,14.43-23.9,19C289.25,267.08,273.47,269.94,254.86,269.94Zm0-136.12A71.74,71.74,0,0,0,202,157c-11.79,12.9-19.27,29.73-22.23,50a45.23,45.23,0,0,0,7.65,33c12,16.87,35.34,25.78,67.48,25.78s55.47-8.91,67.47-25.78a45.28,45.28,0,0,0,7.66-33h0c-3-20.28-10.45-37.11-22.23-50A71.78,71.78,0,0,0,254.86,133.82Z" transform="translate(-4.78 -5.07)" style="fill:#000072"/><path d="M265,217.74c-.7-4.1-10.1-4.16-10.1-4.16s-9.41.06-10.11,4.16,4.39,9.19,10.11,9.19S265.65,221.83,265,217.74Z" transform="translate(-4.78 -5.07)" style="fill:#000072"/><path d="M256.88,225.63c0,.06,0,.28,0,.43s0,.34,0,.51c0,.34.07.69.13,1a10.51,10.51,0,0,0,.55,2,7.84,7.84,0,0,0,2.18,3.15,9.24,9.24,0,0,0,3.54,1.78,17.22,17.22,0,0,0,4.35.5,7.88,7.88,0,0,0,1.09-.05,7.49,7.49,0,0,0,1.06-.13c.35,0,.68-.14,1-.21s.66-.18,1-.32a7.11,7.11,0,0,0,3.16-2.36c1.69-2.14,2.44-5.28,2.8-8.46v-.05a.56.56,0,0,1,1.09-.12,13.21,13.21,0,0,1,.62,5.27,11.59,11.59,0,0,1-1.74,5.3,10.57,10.57,0,0,1-4.43,3.84,14.2,14.2,0,0,1-5.51,1.29,19.09,19.09,0,0,1-5.51-.43A12.78,12.78,0,0,1,257,236a11.25,11.25,0,0,1-2-2.25,12.19,12.19,0,0,1-1.37-2.66,12.76,12.76,0,0,1-.71-2.83,11.35,11.35,0,0,1-.14-1.43c0-.24,0-.49,0-.73s0-.47,0-.82a2.05,2.05,0,0,1,4.1.13Z" transform="translate(-4.78 -5.07)" style="fill:#000072"/><path d="M256.88,225.27a6.2,6.2,0,0,1,0,.82c0,.24,0,.49,0,.73a11.35,11.35,0,0,1-.14,1.43,12.76,12.76,0,0,1-.71,2.83,12.19,12.19,0,0,1-1.37,2.66,11.25,11.25,0,0,1-2,2.25,12.84,12.84,0,0,1-5.29,2.57,19.09,19.09,0,0,1-5.51.43,14.2,14.2,0,0,1-5.51-1.29,10.57,10.57,0,0,1-4.43-3.84,11.59,11.59,0,0,1-1.74-5.3,13.21,13.21,0,0,1,.62-5.27.56.56,0,0,1,1.09.12v.05c.36,3.18,1.11,6.32,2.8,8.46a7.11,7.11,0,0,0,3.16,2.36c.3.14.65.21,1,.32s.68.17,1,.21a7.49,7.49,0,0,0,1.06.13A7.88,7.88,0,0,0,242,235a17.22,17.22,0,0,0,4.35-.5,9.31,9.31,0,0,0,3.54-1.78,7.84,7.84,0,0,0,2.18-3.15,10.51,10.51,0,0,0,.55-2c.06-.34.1-.69.13-1,0-.17,0-.34,0-.51s0-.37,0-.43v-.22a2,2,0,0,1,4.09-.14Z" transform="translate(-4.78 -5.07)" style="fill:#000072"/><path d="M288.46,244.24a6.34,6.34,0,0,1-12.13,2.61H233.38a6.34,6.34,0,1,1-9.82-7.5,6.35,6.35,0,1,1,9.42-8.27h43.75a6.35,6.35,0,1,1,9.42,8.27A6.29,6.29,0,0,1,288.46,244.24Z" transform="translate(-4.78 -5.07)" style="fill:#fff"/><g style="opacity:0.30000000000000004"><path d="M282.11,245.3a6.33,6.33,0,0,1-5.78-3.74H233.38a6.34,6.34,0,0,1-11.55,0,6.35,6.35,0,1,0,11.55,5.26h42.95a6.35,6.35,0,1,0,11.55-5.26A6.33,6.33,0,0,1,282.11,245.3Z" transform="translate(-4.78 -5.07)" style="fill:#000072"/><path d="M223.56,234.06a6.3,6.3,0,0,1-1.73-2.26,6.33,6.33,0,0,0-.58,2.64,6.26,6.26,0,0,0,.42,2.26A6.28,6.28,0,0,1,223.56,234.06Z" transform="translate(-4.78 -5.07)" style="fill:#000072"/><path d="M286.15,234.06A6.19,6.19,0,0,1,288,236.7a6.26,6.26,0,0,0,.42-2.26,6.33,6.33,0,0,0-.58-2.64A6.3,6.3,0,0,1,286.15,234.06Z" transform="translate(-4.78 -5.07)" style="fill:#000072"/></g><path d="M282.11,252.35a8.12,8.12,0,0,1-6.83-3.74H234.43a8.11,8.11,0,1,1-13.3-9.27,8.11,8.11,0,0,1,12.75-10h41.95a8.11,8.11,0,0,1,12.75,10,8.12,8.12,0,0,1-6.47,13Zm-48.73-7.26h42.95a1.76,1.76,0,0,1,1.61,1,4.58,4.58,0,1,0,7.09-5.42,1.77,1.77,0,0,1,0-2.72,4.59,4.59,0,1,0-6.81-6,1.76,1.76,0,0,1-1.49.83H233a1.78,1.78,0,0,1-1.49-.83,4.58,4.58,0,1,0-6.8,6,1.77,1.77,0,0,1,0,2.72,4.58,4.58,0,1,0,7.09,5.42A1.76,1.76,0,0,1,233.38,245.09Z" transform="translate(-4.78 -5.07)" style="fill:#000072"/><path d="M278.3,223.37s-2.46,5.89-11,5.89-7.94-11.21-7.94-11.21h-9.16s.56,11.21-7.94,11.21-11-5.89-11-5.89S229.64,237,241.29,237s13.53-8.1,13.53-8.1,1.87,8.1,13.52,8.1S278.3,223.37,278.3,223.37Z" transform="translate(-4.78 -5.07)" style="fill:#fff"/><path d="M265,217.74c-.7-4.1-10.1-4.16-10.1-4.16s-9.41.06-10.11,4.16,4.39,9.19,10.11,9.19S265.65,221.83,265,217.74Z" transform="translate(-4.78 -5.07)" style="fill:#000072"/><path d="M256.88,225.63c0,.06,0,.28,0,.43s0,.34,0,.51c0,.34.07.69.13,1a10.51,10.51,0,0,0,.55,2,7.84,7.84,0,0,0,2.18,3.15,9.24,9.24,0,0,0,3.54,1.78,17.22,17.22,0,0,0,4.35.5,7.88,7.88,0,0,0,1.09-.05,7.49,7.49,0,0,0,1.06-.13c.35,0,.68-.14,1-.21s.66-.18,1-.32a7.11,7.11,0,0,0,3.16-2.36c1.69-2.14,2.44-5.28,2.8-8.46v-.05a.56.56,0,0,1,1.09-.12,13.21,13.21,0,0,1,.62,5.27,11.59,11.59,0,0,1-1.74,5.3,10.57,10.57,0,0,1-4.43,3.84,14.2,14.2,0,0,1-5.51,1.29,19.09,19.09,0,0,1-5.51-.43A12.78,12.78,0,0,1,257,236a11.25,11.25,0,0,1-2-2.25,12.19,12.19,0,0,1-1.37-2.66,12.76,12.76,0,0,1-.71-2.83,11.35,11.35,0,0,1-.14-1.43c0-.24,0-.49,0-.73s0-.47,0-.82a2.05,2.05,0,0,1,4.1.13Z" transform="translate(-4.78 -5.07)" style="fill:#000072"/><path d="M256.88,225.27a6.2,6.2,0,0,1,0,.82c0,.24,0,.49,0,.73a11.35,11.35,0,0,1-.14,1.43,12.76,12.76,0,0,1-.71,2.83,12.19,12.19,0,0,1-1.37,2.66,11.25,11.25,0,0,1-2,2.25,12.84,12.84,0,0,1-5.29,2.57,19.09,19.09,0,0,1-5.51.43,14.2,14.2,0,0,1-5.51-1.29,10.57,10.57,0,0,1-4.43-3.84,11.59,11.59,0,0,1-1.74-5.3,13.21,13.21,0,0,1,.62-5.27.56.56,0,0,1,1.09.12v.05c.36,3.18,1.11,6.32,2.8,8.46a7.11,7.11,0,0,0,3.16,2.36c.3.14.65.21,1,.32s.68.17,1,.21a7.49,7.49,0,0,0,1.06.13A7.88,7.88,0,0,0,242,235a17.22,17.22,0,0,0,4.35-.5,9.31,9.31,0,0,0,3.54-1.78,7.84,7.84,0,0,0,2.18-3.15,10.51,10.51,0,0,0,.55-2c.06-.34.1-.69.13-1,0-.17,0-.34,0-.51s0-.37,0-.43v-.22a2,2,0,0,1,4.09-.14Z" transform="translate(-4.78 -5.07)" style="fill:#000072"/><g style="opacity:0.30000000000000004"><path d="M242.55,237c10.69,0,12.13-7.47,12.28-10.4,0-.71,0-1.16,0-1.16a8.86,8.86,0,0,1,0,1.16c.16,2.93,1.6,10.4,12.29,10.4,12.61,0,11.39-12.27,11.23-13.52l-.05-.12s-2.33,7.72-10.52,7.72-8.26-9.76-8.26-9.76h-9.41s-.06,9.76-8.25,9.76-10.52-7.72-10.52-7.72S229.26,237,242.55,237Z" transform="translate(-4.78 -5.07)" style="fill:#000072"/></g><g style="opacity:0.30000000000000004"><path d="M254.83,225.45s0,.45,0,1.16A8.86,8.86,0,0,0,254.83,225.45Z" transform="translate(-4.78 -5.07)" style="fill:#000072"/></g><ellipse cx="249.07" cy="212.63" rx="4.08" ry="1.34" style="fill:#fff;opacity:0.4"/><path d="M201.28,255.59s4.55,2.51,3.62,11.64a16.7,16.7,0,0,0,1.77,9.63c2.72,5.08,8.42,11,19.88,8.79C247.7,281.49,245.25,242.93,201.28,255.59Z" transform="translate(-4.78 -5.07)" style="fill:#fff"/><g style="opacity:0.30000000000000004"><path d="M233.31,276c-10.53,5.05-17.54.71-21.45-3.53a16.82,16.82,0,0,1-4.12-8.88c-.71-4.62-2.35-7.21-3.8-8.65-.87.21-1.75.44-2.66.7,0,0,4.55,2.51,3.62,11.64a16.7,16.7,0,0,0,1.77,9.63c2.72,5.08,8.42,11,19.88,8.79a15.66,15.66,0,0,0,12.89-14.73A16.29,16.29,0,0,1,233.31,276Z" transform="translate(-4.78 -5.07)" style="fill:#000072"/></g><path d="M221.8,288.19c-9.78,0-14.74-6.24-17-10.36a18.86,18.86,0,0,1-2-10.81c.76-7.44-2.53-9.6-2.56-9.62a2.07,2.07,0,0,1-1-2,2,2,0,0,1,1.47-1.75c21.49-6.19,31.62-.06,35.74,4.15a17.77,17.77,0,0,1-9.5,29.9A26.91,26.91,0,0,1,221.8,288.19Zm-16.74-31.47c1.28,2.1,2.42,5.49,1.89,10.72a14.58,14.58,0,0,0,1.53,8.45c3.6,6.73,9.55,9.33,17.67,7.74a13.65,13.65,0,0,0,7.36-23C230.23,257.3,222.26,252.55,205.06,256.72Z" transform="translate(-4.78 -5.07)" style="fill:#000072"/><path d="M218.3,285.17a.85.85,0,0,1,0-.18l.09-.24.17-.5.37-1c.22-.71.47-1.44.67-2.19.09-.38.22-.76.29-1.15l.15-.59c0-.19.08-.39.14-.59.19-.81.34-1.63.58-2.52v0a.51.51,0,0,1,.93-.13,9.74,9.74,0,0,1,1.08,2.58,12.53,12.53,0,0,1,.4,2.8,12,12,0,0,1-.24,2.85,9.22,9.22,0,0,1-.38,1.41,6.65,6.65,0,0,1-.28.69c0,.12-.1.23-.16.35l-.23.41a.07.07,0,0,1-.08,0Z" transform="translate(-4.78 -5.07)" style="fill:#000072"/><path d="M229.45,282.77s0-.11,0-.18l.07-.24.16-.51.31-1.06c.2-.72.41-1.45.58-2.22.07-.38.18-.76.24-1.15l.13-.6c0-.19.06-.39.1-.6.16-.81.27-1.64.47-2.54v0a.51.51,0,0,1,.6-.39.5.5,0,0,1,.31.22,9.62,9.62,0,0,1,1.2,2.53,12.73,12.73,0,0,1,.41,5.63,8.93,8.93,0,0,1-.32,1.43,7.43,7.43,0,0,1-.24.71q-.08.17-.15.36c-.07.12-.11.22-.21.41a.05.05,0,0,1-.08,0Z" transform="translate(-4.78 -5.07)" style="fill:#000072"/><path d="M308.43,255.59s-4.55,2.51-3.62,11.64a16.77,16.77,0,0,1-1.76,9.63c-2.73,5.08-8.43,11-19.89,8.79C262,281.49,264.46,242.93,308.43,255.59Z" transform="translate(-4.78 -5.07)" style="fill:#fff"/><g style="opacity:0.30000000000000004"><path d="M276.4,276c10.53,5.05,17.54.71,21.45-3.53a16.75,16.75,0,0,0,4.12-8.88c.71-4.62,2.36-7.21,3.8-8.65.87.21,1.75.44,2.66.7,0,0-4.55,2.51-3.62,11.64a16.77,16.77,0,0,1-1.76,9.63c-2.73,5.08-8.43,11-19.89,8.79a15.66,15.66,0,0,1-12.89-14.73A16.29,16.29,0,0,0,276.4,276Z" transform="translate(-4.78 -5.07)" style="fill:#000072"/></g><path d="M287.91,288.19a26.73,26.73,0,0,1-5.14-.52,17.77,17.77,0,0,1-9.51-29.9c4.12-4.21,14.25-10.34,35.74-4.15a2.06,2.06,0,0,1,.46,3.76c-.2.12-3.35,2.25-2.6,9.64a18.86,18.86,0,0,1-2,10.81C302.65,282,297.69,288.19,287.91,288.19Zm4.41-33.1c-8.95,0-13.75,3.14-16.12,5.56a13.65,13.65,0,0,0,7.36,23c8.12,1.59,14.07-1,17.67-7.74a14.67,14.67,0,0,0,1.54-8.45c-.54-5.23.6-8.62,1.88-10.72A52.62,52.62,0,0,0,292.32,255.09Z" transform="translate(-4.78 -5.07)" style="fill:#000072"/><path d="M287.78,287.11l-.23-.41c-.06-.12-.11-.23-.16-.35s-.19-.46-.28-.69a10.53,10.53,0,0,1-.38-1.41,12.62,12.62,0,0,1,.16-5.65A9.74,9.74,0,0,1,288,276a.51.51,0,0,1,.7-.17.52.52,0,0,1,.23.3v0c.24.89.39,1.71.58,2.52.06.2.09.4.14.59l.15.59c.08.39.2.77.29,1.15.2.75.45,1.48.68,2.19l.36,1,.18.5.08.24a.85.85,0,0,1,.05.18l-3.55,2A.07.07,0,0,1,287.78,287.11Z" transform="translate(-4.78 -5.07)" style="fill:#000072"/><path d="M276.55,284.55c-.1-.19-.14-.29-.2-.41l-.16-.36c-.1-.24-.16-.48-.24-.71a10.17,10.17,0,0,1-.32-1.43A12.73,12.73,0,0,1,276,276a10,10,0,0,1,1.2-2.53.51.51,0,0,1,.92.17v0c.2.9.31,1.73.47,2.54,0,.21.07.41.11.6l.12.6c.06.39.17.77.24,1.15.17.77.38,1.5.58,2.22l.31,1.06.16.51.07.24a1,1,0,0,1,0,.18l-3.64,1.8A.05.05,0,0,1,276.55,284.55Z" transform="translate(-4.78 -5.07)" style="fill:#000072"/><ellipse cx="284.41" cy="181.66" rx="5.72" ry="3.59" transform="translate(-30.8 44.2) rotate(-9.47)" style="fill:#fff"/><ellipse cx="227.36" cy="179.9" rx="3.59" ry="5.72" transform="translate(7.72 369.48) rotate(-80.53)" style="fill:#fff"/><ellipse cx="223.05" cy="203.21" rx="12.66" ry="9.64" transform="translate(-10.61 394.77) rotate(-83)" style="fill:#000072"/><ellipse cx="225.67" cy="201.18" rx="3.7" ry="2.82" transform="translate(-6.29 395.6) rotate(-83)" style="fill:#fff"/><path d="M297.66,199.15a42.18,42.18,0,0,0-5,1.45,29.34,29.34,0,0,0-4.58,2.08c-.73.38-1.4.85-2.09,1.28l-1,.73c-.16.13-.33.24-.48.37l-.45.4a22,22,0,0,0-3.27,3.55l-2.73-3.44.36-.12.32-.09.6-.15c.4-.09.8-.16,1.19-.23a19,19,0,0,1,7.08.26,16.18,16.18,0,0,1,4.35,1.69,15.69,15.69,0,0,1,3.62,2.76.79.79,0,0,1-.83,1.31l-.09,0c-.66-.25-1.26-.56-1.9-.79s-1.26-.46-1.9-.62a18.14,18.14,0,0,0-3.83-.64,17.84,17.84,0,0,0-3.8.12c-.63.08-1.25.2-1.86.34a9,9,0,0,0-.89.24l-.42.13-.2.07-.14.05-.06,0a2.28,2.28,0,0,1-2.94-1.34,2.31,2.31,0,0,1,.27-2.11,21.19,21.19,0,0,1,4-4.54,21.44,21.44,0,0,1,2.46-1.79,21.74,21.74,0,0,1,2.69-1.34,20.35,20.35,0,0,1,5.72-1.47,17.56,17.56,0,0,1,5.82.29.79.79,0,0,1,.6.95.8.8,0,0,1-.59.6Z" transform="translate(-4.78 -5.07)" style="fill:#000072"/><path d="M388.85,43.2c-117.62-73.43-272.5-37.61-345.94,80s-37.61,272.51,80,345.94,272.51,37.61,345.94-80S506.48,116.64,388.85,43.2Zm50.26,327.36c-63.17,101.19-196.41,132-297.6,68.84S9.5,243,72.67,141.8,269.09,9.79,370.27,73,502.28,269.38,439.11,370.56Z" transform="translate(-4.78 -5.07)" style="fill:#242449"/><ellipse cx="247.64" cy="253.25" rx="219.46" ry="218.13" style="fill:#c8e7f5;opacity:0.5"/><g style="opacity:0.22"><path d="M100.24,247.48c-1.06-68.87,43.69-131.19,110.13-150.3,66.27-19.07,138.51,10.17,173.37,69.66,9.83,16.76,36.56,2.75,26.72-14C370.32,84.32,290.74,48.87,213.15,65.39c-76.47,16.27-132.89,82-142.08,158.81a167.57,167.57,0,0,0-1,22.4c.3,19.38,30.47,20.4,30.17.88Z" transform="translate(-4.78 -5.07)" style="fill:#fff"/></g><circle cx="418.31" cy="213.21" r="19.87" transform="translate(-29.11 51.57) rotate(-7.53)" style="fill:#fff;opacity:0.31"/><path d="M466.59,257.72A215.32,215.32,0,0,1,413.26,399c-33.84,38.54-80.95,63.42-131.63,70.6-51.81,7.35-105.3-5.8-148.59-34.83-42.17-28.28-72.93-71.9-86.42-120.71-14-50.62-8.2-105.83,15.38-152.67A215.37,215.37,0,0,1,170.36,60.44C219,40.07,274.18,38.85,323.9,56.07c47.87,16.58,88.54,51,114,94.65,18.92,32.39,28.53,69.57,28.67,107,0,7.41,11.52,7.42,11.49,0a227.71,227.71,0,0,0-50.85-142.5c-31.89-39.46-77.58-67-127.09-77.74C248.8,26.4,194.51,34.12,148,58.34,103.32,81.63,67.27,120.6,46.87,166.59c-21.33,48.07-24.85,103-10.5,153.49,13.87,48.83,44.88,91.55,85.91,121.16,42.19,30.43,94.9,44.69,146.66,41.13,51.32-3.53,100.12-25.24,137.76-60.16,45.47-42.18,71.16-102.64,71.38-164.49C478.11,250.31,466.62,250.32,466.59,257.72Z" transform="translate(-4.78 -5.07)" style="fill:#dedae8"/></svg>