<svg xmlns="http://www.w3.org/2000/svg" viewBox="0 0 814.09 972.1"><g style="isolation:isolate"><polygon points="641.72 470.01 608.33 523.5 418.81 404.11 452.2 350.61 641.72 470.01" style="fill:#f7f7f7"/><path d="M1486.05,715.41l-.39.61c-10.53,16.88-29.34,24.15-42,16.25L1298.19,643l38.23-64.29,145.79,91.85C1494.86,678.44,1496.58,698.53,1486.05,715.41Z" transform="translate(-779.04 -167.9)" style="fill:#292949"/><polygon points="432.06 412.09 441.24 418.77 524.28 397.21 455.09 353.06 432.06 412.09" style="fill:#bbbcbf;opacity:0.2;mix-blend-mode:multiply"/><circle cx="1194.79" cy="420.78" r="15.03" transform="matrix(0.99, -0.13, 0.13, 0.99, -823.87, -7.73)" style="fill:#fff;opacity:0.31"/><path d="M1300.12,640.85l36.38-61.17a4.76,4.76,0,0,0-1.26-6.26l-.64-.48a4.76,4.76,0,0,0-6.95,1.44L1291.83,636a4.76,4.76,0,0,0,1.8,6.56l.09.05A4.76,4.76,0,0,0,1300.12,640.85Z" transform="translate(-779.04 -167.9)" style="fill:#353a85"/><path d="M1463.55,751.23c6.14-16.11,15-48,20.14-63.42-11.2-37.66-34.25-100.57-36.64-101.26-14-4-26.41-7.75-40.34-11.77-.64-.18-4.72,20.65-5.37,20.46s-.73-4.31-.89-9.07h0l-2.68-27.07a5.13,5.13,0,0,0-3.83-4.78c-8.16-2.12-25.78-6.25-26.54-5-.29.47-1.81,24-3.07,30.68l-2.94-1.53-3.84-43.86s-30.47-7.67-31.07-6.26c-.7,1.66-7.48,38.87-7.48,38.87s-11.79,88.79-13.13,95.11c-2,9.24-8.13,17.52-7.24,26.74,1,10.3,5.5,19.85,9.95,29.22l32.25,67.88c2.35,15.36,4.81,50.54,8.34,65.66,39.76-8,79.7-14.09,123.95-28.18C1474.37,823.27,1460.9,758.18,1463.55,751.23Z" transform="translate(-779.04 -167.9)" style="fill:#eac5b0"/><polygon points="559.21 741.76 550.03 661.05 708.99 602.19 736.62 700.59 559.75 753.4 559.21 741.76" style="fill:#f7f7f7"/><path d="M1521.77,817.74S1358.27,911.18,1324.46,920l-9.34,220h278Z" transform="translate(-779.04 -167.9)" style="fill:#292949"/><path d="M1362.85,861.8a9.06,9.06,0,1,1-6.44-11.08A9.07,9.07,0,0,1,1362.85,861.8Z" transform="translate(-779.04 -167.9)" style="fill:#292949"/><path d="M1289.5,692l-21.2-33.44L1237.6,630s-6-17.23,13.27-17.7,32.18,15.6,40.7,28.36c3.74,5.62,21.84,22,35.88,32,18.38,13.07-.82,70.64-.82,70.64S1291.63,695.23,1289.5,692Z" transform="translate(-779.04 -167.9)" style="fill:#eac5b0"/><path d="M1029.07,594.76c-47.45,0-68.08-27-63.86-48.89s0-46.56,0-46.56C960,512.83,952,517,945.34,517.86a21.42,21.42,0,0,1-18.4-7.23c-18.82-20.95,4.73-52.53,18.5-67.76,4.94-5.47,8.62-8.83,8.62-8.83,70.87,30,152.75,9,152.75,9,.71,2.94,1.38,5.83,2,8.66C1134.83,571.55,1075.43,594.76,1029.07,594.76Z" transform="translate(-779.04 -167.9)" style="fill:#c04"/><g style="opacity:0.30000000000000004"><path d="M1108.8,451.69c-.61-2.83-1.28-5.72-2-8.66h-.07l-.13,0h-.07l-.21.05-.12,0-.22.06-.25.06-.21,0-.36.08-.25.06-.4.09-.35.07-.35.08-.4.09-.52.11-.3.07-.74.16-.31.06-.82.17-.35.07-.84.17-.45.09-.62.12-.5.09-.92.18-.5.09-1,.18-.57.1-.94.17-.73.13-.69.12-1.08.18-.68.11-1.17.19h0c-27.74,4.41-84.53,9.28-135.61-12.33,0,0-3.68,3.36-8.62,8.83.31,5.09,3.77,11.1,14.69,16.78,26.29,13.67,68.94,12.09,68.94,12.09h0c59.06,2.09,67.52,86.79,9.93,100a109,109,0,0,1-24.31,2.59c-23.44,0-39.82-7.09-49.43-16.79,3.68,18.77,24.58,37.2,63.8,37.2C1075.43,594.76,1134.83,571.55,1108.8,451.69Z" transform="translate(-779.04 -167.9)" style="fill:#00006f"/></g><g style="opacity:0.7000000000000001"><path d="M970.5,548.22c3.14-16.28,1.51-37.54.47-47.41a3.19,3.19,0,0,0-5-2.34,3.24,3.24,0,0,0-.8.84c.8,9.21,2.51,33.55,0,46.56-3,15.69,6.7,34,29.87,43.09C975.73,579.29,967.72,562.66,970.5,548.22Z" transform="translate(-779.04 -167.9)" style="fill:#fff"/></g><g style="opacity:0.7000000000000001"><path d="M1106.81,443s-81.88,21-152.75-9c0,0-3.68,3.36-8.62,8.83-13.77,15.23-37.32,46.81-18.5,67.76a22.32,22.32,0,0,0,10.32,6.55,22.89,22.89,0,0,1-5-4.2c-9-10-8.31-22.45-3.64-34.38l.16.1c2.78,1.43,7.31-1.82,10.11-7.26,2.63-5.11,2.81-10.34.52-12.14a154.43,154.43,0,0,1,11.35-14.08c4.94-5.47,8.62-8.83,8.62-8.83,61,25.82,130.21,13.84,148.25,10C1107.34,445.28,1107.08,444.16,1106.81,443Z" transform="translate(-779.04 -167.9)" style="fill:#fff"/></g><path d="M1029.07,596.81c-25.49,0-45.92-7.73-57.52-21.77-7.24-8.77-10.29-19.55-8.36-29.56,2.77-14.4,1.81-30.18.88-39-5.6,9.69-12.9,12.68-18.47,13.37a23.46,23.46,0,0,1-20.19-7.9c-11.15-12.4-9.85-30.19,3.76-51.45a157.42,157.42,0,0,1,23.5-28,2.05,2.05,0,0,1,2.19-.37c36.22,15.32,75.43,16.92,101.95,15.58,28.81-1.47,49.28-6.65,49.49-6.7a2.06,2.06,0,0,1,2.51,1.51c13.86,57.26,10.55,99.43-9.84,125.34C1080.15,591.79,1050.58,596.81,1029.07,596.81Zm-63.86-99.56h.2a2.07,2.07,0,0,1,1.83,1.7c.17,1,4.23,25.26,0,47.3-1.69,8.8,1,18.34,7.5,26.16,10.8,13.08,30.1,20.28,54.34,20.28,20.59,0,48.87-4.75,66.66-27.36,19.34-24.58,22.55-64.89,9.55-119.84a295.91,295.91,0,0,1-48.16,6.33c-26.67,1.37-66-.22-102.62-15.37-6.87,6.62-48.11,48.22-26,72.79a19.36,19.36,0,0,0,16.62,6.57c8.06-1,14.18-6.8,18.2-17.25A2.07,2.07,0,0,1,965.21,497.25Z" transform="translate(-779.04 -167.9)" style="fill:#00006f"/><path d="M1095.14,452.38c-25.2,13.1-66.07,11.59-66.07,11.59s-40.86,1.51-66.07-11.59-8.94-28.05-8.94-28.05c-3.29-7.78.12-14,3-17.37a19.8,19.8,0,0,1,3-2.9s17.56,26.62,69.08,26.65h.07c51.52,0,69.08-26.65,69.08-26.65a19.43,19.43,0,0,1,3,3c2.82,3.42,6.18,9.58,2.91,17.31C1104.09,424.33,1120.34,439.27,1095.14,452.38Z" transform="translate(-779.04 -167.9)" style="fill:#fff"/><g style="opacity:0.30000000000000004"><path d="M1101.18,407a44.46,44.46,0,0,1-2.91,4.68c-9.49,13.33-29,26.65-69.16,26.65S969.44,425,960,411.7a45,45,0,0,1-3-4.74,19.8,19.8,0,0,1,3-2.9s17.56,26.62,69.08,26.65h.07c51.52,0,69.08-26.65,69.08-26.65A19.43,19.43,0,0,1,1101.18,407Z" transform="translate(-779.04 -167.9)" style="fill:#00006f"/></g><g style="opacity:0.30000000000000004"><path d="M1105,414.45a17.85,17.85,0,0,1-.93,2.82,16,16,0,0,1,1.33,1.46A15.24,15.24,0,0,0,1105,414.45Z" transform="translate(-779.04 -167.9)" style="fill:#00006f"/></g><g style="opacity:0.30000000000000004"><path d="M954.06,417.27a18,18,0,0,1-.93-2.83,15,15,0,0,0-.4,4.29A16,16,0,0,1,954.06,417.27Z" transform="translate(-779.04 -167.9)" style="fill:#00006f"/></g><g style="opacity:0.30000000000000004"><path d="M1095.14,445.32c-25.2,13.11-66.07,11.59-66.07,11.59s-40.86,1.52-66.07-11.59c-8.56-4.45-12.33-9.12-13.59-13.34-1.57,5.53-.18,13.24,13.59,20.4,25.21,13.1,66.07,11.59,66.07,11.59s40.87,1.51,66.07-11.59c13.77-7.16,15.16-14.87,13.59-20.4C1107.48,436.2,1103.71,440.87,1095.14,445.32Z" transform="translate(-779.04 -167.9)" style="fill:#00006f"/></g><g style="opacity:0.30000000000000004"><path d="M976.13,419.37s4.63,3.19,2.64,12.95a18.17,18.17,0,0,0,.87,10.57c2.39,5.79,7.9,12.83,20.51,11.64C1023.43,452.32,1025,410.44,976.13,419.37Z" transform="translate(-779.04 -167.9)" style="fill:#00006f"/></g><g style="opacity:0.30000000000000004"><path d="M1082,419.37s-4.64,3.19-2.65,12.95a18.17,18.17,0,0,1-.87,10.57c-2.39,5.79-7.9,12.83-20.51,11.64C1034.65,452.32,1033.12,410.44,1082,419.37Z" transform="translate(-779.04 -167.9)" style="fill:#00006f"/></g><path d="M1033.37,466.09c-2.34,0-3.86,0-4.3-.06-2.55.09-41.92,1.22-67-11.83-9.17-4.76-14.25-10.41-15.09-16.78s2.85-11.47,4.7-13.57c-3.49-10.13,3-18.39,7.06-21.44a2.05,2.05,0,0,1,2.95.52c0,.06,4.4,6.49,14.83,12.84,9.64,5.87,26.58,12.87,52.56,12.88s42.93-7,52.57-12.88c10.43-6.35,14.79-12.78,14.83-12.85a2.1,2.1,0,0,1,1.37-.89,2,2,0,0,1,1.58.38c4.08,3,10.55,11.31,7,21.44,1.86,2.1,5.56,7.19,4.71,13.57s-5.92,12-15.09,16.78C1075.3,465,1044.7,466.09,1033.37,466.09Zm-4.3-4.18h.08c.4,0,40.63,1.34,65-11.36,7.89-4.1,12.23-8.69,12.91-13.64.83-6.12-4.36-11-4.41-11.07a2.09,2.09,0,0,1-.5-2.32c3.34-7.87-1.17-13.88-3.72-16.45A59.05,59.05,0,0,1,1084,419.14c-10.11,6.21-27.84,13.61-54.92,13.62H1029c-27.08,0-44.81-7.41-54.92-13.62a59.05,59.05,0,0,1-14.44-12.07c-2.55,2.57-7.06,8.58-3.73,16.45a2.06,2.06,0,0,1-.5,2.32c-.05.05-5.23,5-4.4,11.07.67,4.95,5,9.54,12.9,13.64,24.42,12.7,64.64,11.38,65,11.36Z" transform="translate(-779.04 -167.9)" style="fill:#00006f"/><path d="M955.77,423.18l.29.41.35.46q.36.46.75.93a23,23,0,0,0,1.64,1.79c.58.58,1.2,1.12,1.85,1.66s1.34,1.05,2.06,1.64l0,0a.5.5,0,0,1,.07.7.57.57,0,0,1-.38.18,9.37,9.37,0,0,1-2.87-.42,12.48,12.48,0,0,1-2.68-1.16,15.53,15.53,0,0,1-2.42-1.67c-.37-.33-.74-.66-1.08-1-.18-.19-.35-.37-.51-.57a7.37,7.37,0,0,1-.51-.66,2.06,2.06,0,0,1,3.35-2.39Z" transform="translate(-779.04 -167.9)" style="fill:#00006f"/><path d="M1105.8,425.47a7.37,7.37,0,0,1-.51.66c-.16.2-.34.38-.51.57-.34.36-.71.69-1.08,1a16.54,16.54,0,0,1-2.42,1.67,12.56,12.56,0,0,1-2.69,1.16,9.28,9.28,0,0,1-2.87.42.49.49,0,0,1-.48-.5.52.52,0,0,1,.17-.38l0,0c.72-.59,1.42-1.08,2.06-1.64s1.27-1.08,1.85-1.66A23,23,0,0,0,1101,425c.26-.31.5-.62.75-.93l.34-.46.3-.41.07-.1a2.06,2.06,0,0,1,3.35,2.39Z" transform="translate(-779.04 -167.9)" style="fill:#00006f"/><path d="M1014.93,307s-17.25-35.43-48.21-50.89a11.61,11.61,0,0,0-16,6.26c-7.24,19.13-18.14,60.16,4.91,92.95C955.6,355.32,972.64,320.89,1014.93,307Z" transform="translate(-779.04 -167.9)" style="fill:#e29839"/><g style="opacity:0.30000000000000004"><path d="M966.72,256.11a11.6,11.6,0,0,0-10.55.1q.39.18.78.39c22.92,11.57,28.61,41.54,11.84,61a106.3,106.3,0,0,0-18.16,29.59,75,75,0,0,0,5,8.15s17-34.43,59.33-48.32C1014.93,307,997.68,271.57,966.72,256.11Z" transform="translate(-779.04 -167.9)" style="fill:#00006f"/></g><g style="opacity:0.7000000000000001"><path d="M954.81,264.13a11.59,11.59,0,0,1,13.6-7.14l-1.69-.88a11.61,11.61,0,0,0-16,6.26c-7.24,19.13-18.14,60.16,4.91,92.95,0,0,.45-.9,1.37-2.46C937.59,320.85,947.88,282.46,954.81,264.13Z" transform="translate(-779.04 -167.9)" style="fill:#fff"/></g><path d="M955.6,357.37a2.06,2.06,0,0,1-1.68-.87c-10.33-14.69-15.1-32.47-14.19-52.87.76-17,5.34-32.2,9-42a13.65,13.65,0,0,1,18.87-7.37c31.22,15.59,48.43,50.35,49.15,51.83a2.06,2.06,0,0,1,0,1.7,2,2,0,0,1-1.25,1.15c-40.92,13.45-58,46.94-58.13,47.28a2.08,2.08,0,0,1-1.69,1.14ZM961.54,257a9.53,9.53,0,0,0-3.49.66,9.37,9.37,0,0,0-5.43,5.49c-7.53,19.9-16.9,57.32,2.83,88.29A101.36,101.36,0,0,1,967.9,335,110.41,110.41,0,0,1,1012,305.83c-4.21-7.73-20.49-35.05-46.19-47.88A9.65,9.65,0,0,0,961.54,257Z" transform="translate(-779.04 -167.9)" style="fill:#00006f"/><path d="M1001.35,305.75s-11.71-24.26-32.76-34.83a7.88,7.88,0,0,0-10.9,4.3c-4.94,13.12-12.39,41.24,3.27,63.68C961,338.9,972.57,315.3,1001.35,305.75Z" transform="translate(-779.04 -167.9)" style="fill:#d770a8"/><g style="opacity:0.30000000000000004"><path d="M958.87,284.63a7.88,7.88,0,0,1,10.9-4.3C983,287,992.52,299,997.79,307c1.15-.45,2.34-.88,3.56-1.29,0,0-11.71-24.26-32.76-34.83a7.88,7.88,0,0,0-10.9,4.3c-3.59,9.54-8.5,27-4.91,44.45C952.09,305.58,955.92,292.44,958.87,284.63Z" transform="translate(-779.04 -167.9)" style="fill:#00006f"/></g><path d="M961,341a2.08,2.08,0,0,1-1.69-.88c-15.93-22.85-9-50.9-3.51-65.58a9.95,9.95,0,0,1,13.76-5.42c21.42,10.76,33.19,34.76,33.68,35.78a2.06,2.06,0,0,1-1.2,2.84c-27.57,9.15-39.08,31.88-39.2,32.11a2,2,0,0,1-1.69,1.14Zm4.12-68.82a5.89,5.89,0,0,0-5.47,3.81c-5,13.33-11.26,38.21,1.23,59a75.32,75.32,0,0,1,37.57-30.34c-3.31-6-14.1-23.48-30.74-31.84A5.77,5.77,0,0,0,965.08,272.14Z" transform="translate(-779.04 -167.9)" style="fill:#00006f"/><path d="M1043.29,307s17.26-35.43,48.21-50.89a11.61,11.61,0,0,1,16,6.26c7.24,19.13,18.15,60.16-4.91,92.95C1102.62,355.32,1085.58,320.89,1043.29,307Z" transform="translate(-779.04 -167.9)" style="fill:#e29839"/><g style="opacity:0.30000000000000004"><path d="M1091.5,256.11a11.6,11.6,0,0,1,10.55.1q-.39.18-.78.39c-22.91,11.57-28.61,41.54-11.84,61a106.3,106.3,0,0,1,18.16,29.59,73.44,73.44,0,0,1-5,8.15s-17-34.43-59.33-48.32C1043.29,307,1060.55,271.57,1091.5,256.11Z" transform="translate(-779.04 -167.9)" style="fill:#00006f"/></g><path d="M1102.62,357.37h-.16a2.06,2.06,0,0,1-1.68-1.14c-.17-.34-17.21-33.83-58.13-47.28a2,2,0,0,1-1.21-2.85c.72-1.48,17.92-36.24,49.15-51.83a13.64,13.64,0,0,1,18.86,7.37,139,139,0,0,1,9,42c.92,20.4-3.86,38.18-14.19,52.87A2,2,0,0,1,1102.62,357.37Zm-56.39-51.54a110.45,110.45,0,0,1,44.1,29.14,102.58,102.58,0,0,1,12.45,16.42c19.72-31,10.36-68.39,2.83-88.29a9.41,9.41,0,0,0-5.44-5.49,9.56,9.56,0,0,0-7.75.34C1066.73,270.78,1050.45,298.1,1046.23,305.83Z" transform="translate(-779.04 -167.9)" style="fill:#00006f"/><path d="M1056.88,305.75s11.71-24.26,32.75-34.83a7.89,7.89,0,0,1,10.91,4.3c4.93,13.12,12.38,41.24-3.27,63.68C1097.27,338.9,1085.65,315.3,1056.88,305.75Z" transform="translate(-779.04 -167.9)" style="fill:#d770a8"/><g style="opacity:0.30000000000000004"><path d="M1099.36,284.63a7.88,7.88,0,0,0-10.9-4.3c-13.22,6.64-22.76,18.67-28,26.71-1.16-.45-2.34-.88-3.56-1.29,0,0,11.71-24.26,32.75-34.83a7.89,7.89,0,0,1,10.91,4.3c3.59,9.54,8.5,27,4.9,44.45C1106.13,305.58,1102.3,292.44,1099.36,284.63Z" transform="translate(-779.04 -167.9)" style="fill:#00006f"/></g><path d="M1097.27,341h-.16a2,2,0,0,1-1.69-1.14c-.11-.23-11.63-23-39.19-32.11a2,2,0,0,1-1.25-1.15,2.07,2.07,0,0,1,0-1.69c.49-1,12.26-25,33.69-35.78a9.93,9.93,0,0,1,13.75,5.42c5.53,14.68,12.43,42.73-3.51,65.58A2,2,0,0,1,1097.27,341Zm-37.46-36.36a75.22,75.22,0,0,1,37.57,30.34c12.49-20.78,6.25-45.66,1.23-59a5.83,5.83,0,0,0-8.06-3.19C1073.88,281.13,1063.12,298.63,1059.81,304.6Z" transform="translate(-779.04 -167.9)" style="fill:#00006f"/><path d="M1098.27,404.06c-9.49,13.32-29,26.65-69.16,26.65S969.44,417.38,960,404.06a46.35,46.35,0,0,1-7.82-18.82,49.82,49.82,0,0,1-.2-15.66c3.4-23.22,12.23-39.58,22.75-51.1,29.12-31.86,79.73-31.86,108.84,0,10.53,11.52,19.35,27.88,22.75,51.1A47.55,47.55,0,0,1,1098.27,404.06Z" transform="translate(-779.04 -167.9)" style="fill:#e29839"/><path d="M1106.07,385.23s-11.44-9.47-28-1.07a24.79,24.79,0,0,1-31.26-7.12c-5.2-7-10.44-17.67-14.56-33.69a3.27,3.27,0,0,0-6.33,0c-4.12,16-9.36,26.65-14.57,33.69a24.79,24.79,0,0,1-31.26,7.12c-16.52-8.4-28,1.07-28,1.07h0A46.35,46.35,0,0,0,960,404.06c9.48,13.32,29,26.65,69.15,26.65s59.67-13.33,69.16-26.65a46.19,46.19,0,0,0,7.81-18.82Z" transform="translate(-779.04 -167.9)" style="fill:#fff"/><g style="opacity:0.30000000000000004"><path d="M1106.28,369.58c-3.21-21.94-11.27-37.76-21-49.16,5.36,9.59,9.52,21.3,11.62,35.64a47.55,47.55,0,0,1-8,34.48c-9.49,13.32-29,26.64-69.16,26.64-34,0-53.17-9.54-64-20.55a45.12,45.12,0,0,0,4.28,7.43c9.48,13.32,29,26.65,69.15,26.65s59.67-13.33,69.16-26.65A47.55,47.55,0,0,0,1106.28,369.58Z" transform="translate(-779.04 -167.9)" style="fill:#00006f"/></g><g style="opacity:0.7000000000000001"><path d="M1083.53,318.48c-29.11-31.86-79.72-31.86-108.84,0-10.52,11.52-19.35,27.88-22.75,51.1a49.82,49.82,0,0,0,.2,15.66A46.35,46.35,0,0,0,960,404.06c.78,1.1,1.64,2.2,2.57,3.29a46.34,46.34,0,0,1-6.86-17.4,49.88,49.88,0,0,1-.2-15.67c3.25-22.2,11.47-38.12,21.38-49.55,2.27,1.46,7.33-.39,11.84-4.45,4.06-3.65,6.38-7.94,5.92-10.51,29.21-17.54,68.25-13.07,92.45,13.41q1.64,1.8,3.21,3.75A80.57,80.57,0,0,0,1083.53,318.48Z" transform="translate(-779.04 -167.9)" style="fill:#fff"/></g><g style="opacity:0.30000000000000004"><path d="M1052.56,386.2s-2.34,7.72-10.53,7.72-8.25-9.77-8.25-9.77h-9.41s-.07,9.77-8.26,9.77-10.52-7.72-10.52-7.72-6.36,13.7,4.89,17.86,18.59-2.27,18.59-2.27,7.36,6.43,18.6,2.27S1052.56,386.2,1052.56,386.2Z" transform="translate(-779.04 -167.9)" style="fill:#00006f"/></g><path d="M1029.11,432.76c-18.61,0-34.39-2.86-46.92-8.5-10.14-4.58-18.19-11-23.91-19a49.38,49.38,0,0,1-8.37-36c3.09-21.11,10.92-38.67,23.26-52.19a76,76,0,0,1,111.88,0c12.35,13.52,20.18,31.08,23.26,52.19h0a49.33,49.33,0,0,1-8.37,36c-5.72,8-13.76,14.43-23.9,19C1063.51,429.9,1047.72,432.76,1029.11,432.76Zm0-136.12a71.79,71.79,0,0,0-52.9,23.23c-11.78,12.9-19.26,29.72-22.23,50a45.25,45.25,0,0,0,7.66,33c12,16.86,35.33,25.78,67.47,25.78s55.47-8.92,67.48-25.78a45.29,45.29,0,0,0,7.65-33h0c-3-20.29-10.45-37.11-22.23-50A71.79,71.79,0,0,0,1029.11,296.64Z" transform="translate(-779.04 -167.9)" style="fill:#00006f"/><path d="M1039.21,380.56c-.69-4.1-10.1-4.16-10.1-4.16s-9.41.06-10.1,4.16,4.39,9.2,10.1,9.2S1039.91,384.65,1039.21,380.56Z" transform="translate(-779.04 -167.9)" style="fill:#00006f"/><path d="M1031.14,388.46c0,.06,0,.27,0,.42s0,.34,0,.51c0,.35.08.69.14,1a10.83,10.83,0,0,0,.55,2,7.87,7.87,0,0,0,2.18,3.14,9,9,0,0,0,3.54,1.78,17.61,17.61,0,0,0,4.34.51c.37,0,.74,0,1.09-.05s.71-.08,1.07-.13.68-.15,1-.21a10,10,0,0,0,1-.32,7.21,7.21,0,0,0,3.15-2.36c1.7-2.14,2.45-5.29,2.81-8.47v0a.55.55,0,0,1,.62-.49.57.57,0,0,1,.47.37,13,13,0,0,1,.61,5.27,11.45,11.45,0,0,1-1.73,5.31,10.65,10.65,0,0,1-4.44,3.83,14.32,14.32,0,0,1-5.51,1.3,19.78,19.78,0,0,1-5.5-.43,12.85,12.85,0,0,1-5.29-2.57,11.5,11.5,0,0,1-2-2.25,12.3,12.3,0,0,1-1.38-2.67,13.4,13.4,0,0,1-.71-2.82,14,14,0,0,1-.13-1.44c0-.24,0-.48,0-.73s0-.46,0-.81a2.05,2.05,0,0,1,4.1.12Z" transform="translate(-779.04 -167.9)" style="fill:#00006f"/><path d="M1031.14,388.1c0,.35,0,.55,0,.81s0,.49,0,.73a14,14,0,0,1-.13,1.44,13.4,13.4,0,0,1-.71,2.82,12.72,12.72,0,0,1-1.37,2.67,12.16,12.16,0,0,1-2,2.25,13,13,0,0,1-5.29,2.57,19.88,19.88,0,0,1-5.51.43,14.36,14.36,0,0,1-5.51-1.3,10.71,10.71,0,0,1-4.44-3.83,11.45,11.45,0,0,1-1.73-5.31,13.22,13.22,0,0,1,.61-5.27.57.57,0,0,1,.72-.35.58.58,0,0,1,.38.47v0c.36,3.18,1.12,6.33,2.81,8.47a7.21,7.21,0,0,0,3.15,2.36c.31.14.65.21,1,.32s.67.16,1,.21.69.11,1.06.13.72.05,1.09.05a17.75,17.75,0,0,0,4.35-.51,9.17,9.17,0,0,0,3.54-1.78,8,8,0,0,0,2.18-3.14,10.06,10.06,0,0,0,.54-2c.06-.34.11-.68.14-1a4.36,4.36,0,0,0,0-.51c0-.15,0-.36,0-.42v-.23a2,2,0,0,1,4.09-.13Z" transform="translate(-779.04 -167.9)" style="fill:#00006f"/><path d="M1062.72,407.06a6.35,6.35,0,0,1-12.13,2.62h-42.95a6.35,6.35,0,1,1-9.83-7.51,6.35,6.35,0,1,1,9.43-8.26H1051a6.35,6.35,0,1,1,9.42,8.26A6.33,6.33,0,0,1,1062.72,407.06Z" transform="translate(-779.04 -167.9)" style="fill:#fff"/><g style="opacity:0.30000000000000004"><path d="M1056.37,408.12a6.33,6.33,0,0,1-5.78-3.74h-42.95a6.34,6.34,0,0,1-11.55,0,6.35,6.35,0,1,0,11.55,5.26h42.95a6.35,6.35,0,0,0,12.13-2.62,6.15,6.15,0,0,0-.59-2.64A6.34,6.34,0,0,1,1056.37,408.12Z" transform="translate(-779.04 -167.9)" style="fill:#00006f"/><path d="M997.81,396.88a6.44,6.44,0,0,1-1.72-2.25,6.27,6.27,0,0,0-.16,4.89A6.32,6.32,0,0,1,997.81,396.88Z" transform="translate(-779.04 -167.9)" style="fill:#00006f"/><path d="M1060.41,396.88a6.34,6.34,0,0,1,1.89,2.64,6.47,6.47,0,0,0,.42-2.25,6.27,6.27,0,0,0-.59-2.64A6.44,6.44,0,0,1,1060.41,396.88Z" transform="translate(-779.04 -167.9)" style="fill:#00006f"/></g><path d="M1056.37,415.18a8.12,8.12,0,0,1-6.83-3.74h-40.85a8.12,8.12,0,0,1-15-4.38,8.05,8.05,0,0,1,1.65-4.89,8.11,8.11,0,0,1,12.75-10h41.94a8.12,8.12,0,0,1,12.76,10,8.12,8.12,0,0,1-6.47,13Zm-48.73-7.27h42.95a1.76,1.76,0,0,1,1.6,1,4.58,4.58,0,1,0,7.1-5.42,1.73,1.73,0,0,1-.64-1.35,1.76,1.76,0,0,1,.63-1.36,4.63,4.63,0,0,0,1.67-3.55,4.59,4.59,0,0,0-8.47-2.43,1.75,1.75,0,0,1-1.49.83h-43.75a1.74,1.74,0,0,1-1.49-.83,4.59,4.59,0,1,0-6.81,6,1.74,1.74,0,0,1,.64,1.36,1.76,1.76,0,0,1-.64,1.35A4.58,4.58,0,1,0,1006,409,1.78,1.78,0,0,1,1007.64,407.91Z" transform="translate(-779.04 -167.9)" style="fill:#00006f"/><path d="M1052.56,386.2s-2.46,5.89-11,5.89-7.93-11.22-7.93-11.22h-9.17s.57,11.22-7.94,11.22-11-5.89-11-5.89-1.7,13.64,10,13.64,13.52-8.1,13.52-8.1,1.88,8.1,13.53,8.1S1052.56,386.2,1052.56,386.2Z" transform="translate(-779.04 -167.9)" style="fill:#fff"/><path d="M1039.21,380.56c-.69-4.1-10.1-4.16-10.1-4.16s-9.41.06-10.1,4.16,4.39,9.2,10.1,9.2S1039.91,384.65,1039.21,380.56Z" transform="translate(-779.04 -167.9)" style="fill:#00006f"/><path d="M1031.14,388.46c0,.06,0,.27,0,.42s0,.34,0,.51c0,.35.08.69.14,1a10.83,10.83,0,0,0,.55,2,7.87,7.87,0,0,0,2.18,3.14,9,9,0,0,0,3.54,1.78,17.61,17.61,0,0,0,4.34.51c.37,0,.74,0,1.09-.05s.71-.08,1.07-.13.68-.15,1-.21a10,10,0,0,0,1-.32,7.21,7.21,0,0,0,3.15-2.36c1.7-2.14,2.45-5.29,2.81-8.47v0a.55.55,0,0,1,.62-.49.57.57,0,0,1,.47.37,13,13,0,0,1,.61,5.27,11.45,11.45,0,0,1-1.73,5.31,10.65,10.65,0,0,1-4.44,3.83,14.32,14.32,0,0,1-5.51,1.3,19.78,19.78,0,0,1-5.5-.43,12.85,12.85,0,0,1-5.29-2.57,11.5,11.5,0,0,1-2-2.25,12.3,12.3,0,0,1-1.38-2.67,13.4,13.4,0,0,1-.71-2.82,14,14,0,0,1-.13-1.44c0-.24,0-.48,0-.73s0-.46,0-.81a2.05,2.05,0,0,1,4.1.12Z" transform="translate(-779.04 -167.9)" style="fill:#00006f"/><path d="M1031.14,388.1c0,.35,0,.55,0,.81s0,.49,0,.73a14,14,0,0,1-.13,1.44,13.4,13.4,0,0,1-.71,2.82,12.72,12.72,0,0,1-1.37,2.67,12.16,12.16,0,0,1-2,2.25,13,13,0,0,1-5.29,2.57,19.88,19.88,0,0,1-5.51.43,14.36,14.36,0,0,1-5.51-1.3,10.71,10.71,0,0,1-4.44-3.83,11.45,11.45,0,0,1-1.73-5.31,13.22,13.22,0,0,1,.61-5.27.57.57,0,0,1,.72-.35.58.58,0,0,1,.38.47v0c.36,3.18,1.12,6.33,2.81,8.47a7.21,7.21,0,0,0,3.15,2.36c.31.14.65.21,1,.32s.67.16,1,.21.69.11,1.06.13.72.05,1.09.05a17.75,17.75,0,0,0,4.35-.51,9.17,9.17,0,0,0,3.54-1.78,8,8,0,0,0,2.18-3.14,10.06,10.06,0,0,0,.54-2c.06-.34.11-.68.14-1a4.36,4.36,0,0,0,0-.51c0-.15,0-.36,0-.42v-.23a2,2,0,0,1,4.09-.13Z" transform="translate(-779.04 -167.9)" style="fill:#00006f"/><g style="opacity:0.30000000000000004"><path d="M1016.81,399.84c10.69,0,12.13-7.48,12.28-10.41a8.67,8.67,0,0,1,0-1.15,8.67,8.67,0,0,1,0,1.15c.16,2.93,1.59,10.41,12.29,10.41,12.61,0,11.38-12.27,11.22-13.53a.7.7,0,0,0,0-.11s-2.34,7.72-10.53,7.72-8.25-9.77-8.25-9.77h-9.41s-.07,9.77-8.26,9.77-10.52-7.72-10.52-7.72S1003.51,399.84,1016.81,399.84Z" transform="translate(-779.04 -167.9)" style="fill:#00006f"/></g><g style="opacity:0.30000000000000004"><path d="M1029.09,388.28a8.67,8.67,0,0,0,0,1.15A8.67,8.67,0,0,0,1029.09,388.28Z" transform="translate(-779.04 -167.9)" style="fill:#00006f"/></g><ellipse cx="249.07" cy="212.63" rx="4.08" ry="1.34" style="fill:#fff;opacity:0.4"/><path d="M975.54,418.42s4.54,2.5,3.62,11.64a16.75,16.75,0,0,0,1.76,9.62c2.72,5.09,8.43,11,19.89,8.79C1022,444.31,1019.51,405.75,975.54,418.42Z" transform="translate(-779.04 -167.9)" style="fill:#fff"/><g style="opacity:0.30000000000000004"><path d="M1007.57,438.77c-10.53,5.05-17.54.71-21.45-3.53a16.72,16.72,0,0,1-4.12-8.87c-.71-4.62-2.36-7.22-3.81-8.66-.87.22-1.75.45-2.65.71,0,0,4.54,2.5,3.62,11.64a16.75,16.75,0,0,0,1.76,9.62c2.72,5.09,8.43,11,19.89,8.79a15.66,15.66,0,0,0,12.89-14.73A16.11,16.11,0,0,1,1007.57,438.77Z" transform="translate(-779.04 -167.9)" style="fill:#00006f"/></g><path d="M996.06,451c-9.79,0-14.75-6.24-16.95-10.37a18.75,18.75,0,0,1-2-10.8c.75-7.45-2.53-9.61-2.56-9.63a2.06,2.06,0,0,1,.42-3.78c21.49-6.19,31.61-.06,35.74,4.15a17.77,17.77,0,0,1-9.51,29.9A26.87,26.87,0,0,1,996.06,451Zm-16.74-31.48c1.28,2.1,2.41,5.49,1.88,10.72a14.67,14.67,0,0,0,1.54,8.45c3.6,6.73,9.54,9.34,17.67,7.74a13.65,13.65,0,0,0,7.36-23C1004.48,420.12,996.52,415.37,979.32,419.54Z" transform="translate(-779.04 -167.9)" style="fill:#00006f"/><path d="M992.56,448a1,1,0,0,1,.05-.17l.08-.24.18-.5.36-1.05c.23-.71.48-1.44.67-2.19.1-.38.22-.76.3-1.14l.15-.59c0-.2.08-.4.13-.6.2-.8.35-1.63.58-2.51v0a.5.5,0,0,1,.92-.13,9.48,9.48,0,0,1,1.08,2.59,11.83,11.83,0,0,1,.41,2.79,13,13,0,0,1-.24,2.85,11.75,11.75,0,0,1-.38,1.41c-.09.23-.17.46-.28.7a3.7,3.7,0,0,1-.17.35c-.06.12-.11.22-.22.4a.05.05,0,0,1-.08,0Z" transform="translate(-779.04 -167.9)" style="fill:#00006f"/><path d="M1003.7,445.6a.85.85,0,0,1,0-.18l.07-.24.15-.51.32-1.06c.2-.72.41-1.46.57-2.22.08-.38.19-.77.25-1.16l.12-.59c0-.2.06-.4.11-.6.16-.81.27-1.65.47-2.54v0a.5.5,0,0,1,.6-.38.52.52,0,0,1,.32.21,9.51,9.51,0,0,1,1.19,2.54,11.7,11.7,0,0,1,.53,2.77,12.46,12.46,0,0,1-.11,2.86,11.64,11.64,0,0,1-.32,1.42c-.08.24-.15.47-.25.71a2.75,2.75,0,0,1-.15.36c-.06.13-.1.22-.2.41a.07.07,0,0,1-.08,0Z" transform="translate(-779.04 -167.9)" style="fill:#00006f"/><path d="M1082.68,418.42s-4.54,2.5-3.61,11.64a16.68,16.68,0,0,1-1.77,9.62c-2.72,5.09-8.42,11-19.88,8.79C1036.27,444.31,1038.71,405.75,1082.68,418.42Z" transform="translate(-779.04 -167.9)" style="fill:#fff"/><g style="opacity:0.30000000000000004"><path d="M1050.65,438.77c10.53,5.05,17.55.71,21.46-3.53a16.79,16.79,0,0,0,4.12-8.87c.71-4.62,2.35-7.22,3.8-8.66.87.22,1.75.45,2.65.71,0,0-4.54,2.5-3.61,11.64a16.68,16.68,0,0,1-1.77,9.62c-2.72,5.09-8.42,11-19.88,8.79a15.67,15.67,0,0,1-12.9-14.73A16.26,16.26,0,0,0,1050.65,438.77Z" transform="translate(-779.04 -167.9)" style="fill:#00006f"/></g><path d="M1062.17,451a27,27,0,0,1-5.15-.53,17.76,17.76,0,0,1-9.5-29.9c4.12-4.21,14.25-10.34,35.73-4.15a2.06,2.06,0,0,1,.47,3.76c-.21.13-3.35,2.26-2.6,9.65a18.83,18.83,0,0,1-2,10.8C1076.91,444.78,1072,451,1062.17,451Zm4.41-33.11c-8.95,0-13.75,3.15-16.12,5.56a13.64,13.64,0,0,0,7.36,23c8.12,1.6,14.06-1,17.67-7.74a14.75,14.75,0,0,0,1.53-8.45c-.53-5.23.6-8.62,1.89-10.72A52.75,52.75,0,0,0,1066.58,417.91Z" transform="translate(-779.04 -167.9)" style="fill:#00006f"/><path d="M1062,449.93c-.11-.18-.16-.28-.23-.4s-.11-.24-.17-.35-.18-.47-.27-.7a8.92,8.92,0,0,1-.38-1.41,12.57,12.57,0,0,1,.16-5.64,9.48,9.48,0,0,1,1.08-2.59.52.52,0,0,1,.7-.17.51.51,0,0,1,.22.3v0c.24.88.39,1.71.58,2.51,0,.2.09.4.13.6l.15.59c.08.38.21.76.3,1.14.2.75.44,1.48.67,2.19l.36,1.05.18.5.09.24a1,1,0,0,1,.05.17l-3.55,2A.05.05,0,0,1,1062,449.93Z" transform="translate(-779.04 -167.9)" style="fill:#00006f"/><path d="M1050.81,447.37c-.1-.19-.15-.28-.21-.41l-.15-.36c-.1-.24-.17-.47-.25-.71a10,10,0,0,1-.31-1.42,13.06,13.06,0,0,1-.12-2.86,12.8,12.8,0,0,1,.53-2.77,9.24,9.24,0,0,1,1.2-2.54.51.51,0,0,1,.7-.14.5.5,0,0,1,.21.31v0c.19.89.31,1.73.47,2.54,0,.2.07.4.1.6l.13.59c.06.39.17.78.24,1.16.17.76.38,1.5.58,2.22l.31,1.06.16.51.07.24c0,.07.06.17,0,.18l-3.63,1.8A.06.06,0,0,1,1050.81,447.37Z" transform="translate(-779.04 -167.9)" style="fill:#00006f"/><ellipse cx="1058.67" cy="344.49" rx="5.72" ry="3.59" transform="translate(-821.29 11) rotate(-9.47)" style="fill:#fff"/><ellipse cx="1001.61" cy="342.72" rx="3.59" ry="5.72" transform="translate(-280.29 1106.4) rotate(-80.53)" style="fill:#fff"/><ellipse cx="997.3" cy="366.04" rx="12.66" ry="9.64" transform="translate(-266.54 1143.42) rotate(-83)" style="fill:#00006f"/><ellipse cx="999.93" cy="364.01" rx="3.7" ry="2.82" transform="translate(-262.22 1144.25) rotate(-83)" style="fill:#fff"/><path d="M1071.92,362a45.85,45.85,0,0,0-5,1.45,31.22,31.22,0,0,0-4.58,2.08c-.73.39-1.39.85-2.08,1.29l-1,.73c-.15.12-.32.23-.48.37l-.44.4a22,22,0,0,0-3.27,3.54l-2.73-3.43.36-.12.31-.09.61-.15c.4-.1.79-.16,1.19-.23a19,19,0,0,1,2.37-.22,18.16,18.16,0,0,1,4.71.47,16.34,16.34,0,0,1,4.35,1.7,15.36,15.36,0,0,1,3.62,2.76.79.79,0,0,1-.84,1.3l-.09,0c-.65-.26-1.26-.57-1.89-.8s-1.26-.46-1.9-.61a19,19,0,0,0-3.83-.65,18.62,18.62,0,0,0-3.81.12c-.62.08-1.24.21-1.85.34-.3.08-.6.15-.89.24l-.42.14-.2.06-.14.06-.06,0a2.28,2.28,0,0,1-2.94-1.35,2.26,2.26,0,0,1,.27-2.11,20.93,20.93,0,0,1,4-4.54,20.41,20.41,0,0,1,2.45-1.78,23.45,23.45,0,0,1,2.7-1.35,21,21,0,0,1,5.72-1.47,17.83,17.83,0,0,1,5.82.29.79.79,0,0,1,0,1.55Z" transform="translate(-779.04 -167.9)" style="fill:#00006f"/><path d="M1163.11,206c-117.62-73.44-272.51-37.61-345.94,80s-37.61,272.51,80,345.94,272.51,37.61,346-80S1280.73,279.46,1163.11,206Zm50.25,327.36c-63.17,101.19-196.41,132-297.6,68.83s-132-196.41-68.83-297.6,196.41-132,297.6-68.83S1276.54,432.2,1213.36,533.39Z" transform="translate(-779.04 -167.9)" style="fill:#292949"/><ellipse cx="247.64" cy="253.25" rx="219.46" ry="218.13" style="fill:#cfe5f3;opacity:0.5"/><g style="opacity:0.22"><path d="M874.5,410.3c-1.07-68.87,43.69-131.18,110.13-150.3,66.27-19.07,138.5,10.18,173.37,69.66,9.83,16.77,36.56,2.76,26.72-14C1144.58,247.15,1065,211.7,987.4,228.21c-76.46,16.27-132.88,82-142.08,158.81a166,166,0,0,0-1,22.4c.3,19.38,30.47,20.4,30.17.88Z" transform="translate(-779.04 -167.9)" style="fill:#fff"/></g><circle cx="1192.57" cy="376.03" r="19.87" transform="translate(-818.02 -8.41) rotate(-7.53)" style="fill:#fff;opacity:0.31"/><path d="M1240.84,420.55a215.35,215.35,0,0,1-53.32,141.27c-33.84,38.53-81,63.41-131.63,70.59-51.82,7.35-105.3-5.79-148.59-34.83-42.17-28.27-72.94-71.89-86.43-120.71-14-50.62-8.19-105.83,15.39-152.66A215.35,215.35,0,0,1,944.61,223.27c48.63-20.37,103.83-21.6,153.55-4.38,47.87,16.58,88.53,51.05,114,94.65,18.92,32.39,28.54,69.57,28.67,107,0,7.41,11.52,7.41,11.5,0A227.82,227.82,0,0,0,1201.49,278c-31.89-39.46-77.59-67.05-127.09-77.73-51.34-11.09-105.63-3.37-152.13,20.86-44.7,23.28-80.74,62.26-101.15,108.24-21.32,48.07-24.85,103-10.49,153.5,13.87,48.83,44.88,91.54,85.91,121.15,42.19,30.44,94.9,44.7,146.66,41.13C1094.52,641.66,1143.32,620,1181,585c45.46-42.18,71.15-102.65,71.38-164.49C1252.36,413.14,1240.87,413.14,1240.84,420.55Z" transform="translate(-779.04 -167.9)" style="fill:#dbd8e6"/></g></svg>