<?xml version="1.0" encoding="utf-8"?>
<!-- Generator: Adobe Illustrator 24.1.0, SVG Export Plug-In . SVG Version: 6.00 Build 0)  -->
<svg version="1.1" xmlns="http://www.w3.org/2000/svg" xmlns:xlink="http://www.w3.org/1999/xlink" x="0px" y="0px"
	 viewBox="0 0 1713 1140" style="enable-background:new 0 0 1713 1140;" xml:space="preserve">
<style type="text/css">
	.st0{fill:#F7F7F7;}
	.st1{fill:#292949;}
	.st2{opacity:0.2;fill:#BBBCBF;}
	.st3{opacity:0.31;fill:#FFFFFF;}
	.st4{fill:#353A85;}
	.st5{fill:#EAC5B0;}
	.st6{fill:#CC0044;}
	.st7{opacity:0.3;}
	.st8{fill:#00006F;}
	.st9{opacity:0.7;}
	.st10{fill:#FFFFFF;}
	.st11{fill:#E29839;}
	.st12{fill:#D770A8;}
	.st13{opacity:0.4;fill:#FFFFFF;}
	.st14{opacity:0.5;fill:#CFE5F3;}
	.st15{opacity:0.22;}
	.st16{fill:#DBD8E6;}
</style>
<g id="background">
</g>
<g id="object">
	<g>
		<g>
			<g>
				<g>
					<g>
						<g>
							<polygon class="st0" points="1420.8,637.9 1387.4,691.4 1197.8,572 1231.2,518.5 							"/>
							<path class="st1" d="M1486,715.4l-0.4,0.6c-10.5,16.9-29.3,24.2-42,16.2L1298.2,643l38.2-64.3l145.8,91.9
								C1494.9,678.4,1496.6,698.5,1486,715.4z"/>
						</g>
						<polygon class="st2" points="1211.1,580 1220.3,586.7 1303.3,565.1 1234.1,521 						"/>
					</g>
				</g>
				<g>
					
						<ellipse transform="matrix(0.9914 -0.131 0.131 0.9914 -44.8303 160.1635)" class="st3" cx="1194.8" cy="420.8" rx="15" ry="15"/>
				</g>
			</g>
			<path class="st4" d="M1300.1,640.8l36.4-61.2c1.2-2.1,0.7-4.8-1.3-6.3l-0.6-0.5c-2.3-1.7-5.5-1-7,1.4l-35.8,61.6
				c-1.3,2.3-0.5,5.3,1.8,6.6l0.1,0C1296,643.8,1298.8,643.1,1300.1,640.8z"/>
		</g>
		<path class="st5" d="M1463.5,751.2c6.1-16.1,15-48,20.1-63.4c-11.2-37.7-34.2-100.6-36.6-101.3c-14-4-26.4-7.7-40.3-11.8
			c-0.6-0.2-4.7,20.6-5.4,20.5c-0.5-0.1-0.7-4.3-0.9-9.1c0,0,0,0,0,0l-2.7-27.1c-0.1-2.3-1.6-4.2-3.8-4.8c-8.2-2.1-25.8-6.3-26.5-5
			c-0.3,0.5-1.8,24-3.1,30.7l-2.9-1.5l-3.8-43.9c0,0-30.5-7.7-31.1-6.3c-0.7,1.7-7.5,38.9-7.5,38.9s-11.8,88.8-13.1,95.1
			c-2,9.2-8.1,17.5-7.2,26.7c1,10.3,5.5,19.8,10,29.2c10.8,22.6,21.5,45.3,32.3,67.9c2.3,15.4,4.8,50.5,8.3,65.7
			c39.8-8,79.7-14.1,124-28.2C1474.4,823.3,1460.9,758.2,1463.5,751.2z"/>
		<g>
			<polygon class="st0" points="1338.2,909.7 1329.1,829 1488,770.1 1515.7,868.5 1338.8,921.3 			"/>
			<path class="st1" d="M1521.8,817.7c0,0-163.5,93.4-197.3,102.3l-9.3,220h278L1521.8,817.7z"/>
			<path class="st1" d="M1362.8,861.8c-1.3,4.8-6.2,7.7-11.1,6.4c-4.8-1.3-7.7-6.2-6.4-11.1c1.3-4.8,6.2-7.7,11.1-6.4
				C1361.2,852,1364.1,857,1362.8,861.8z"/>
		</g>
		<path class="st5" d="M1289.5,692l-21.2-33.4l-30.7-28.6c0,0-6-17.2,13.3-17.7c19.2-0.5,32.2,15.6,40.7,28.4
			c3.7,5.6,21.8,21.9,35.9,31.9c18.4,13.1-0.8,70.6-0.8,70.6S1291.6,695.2,1289.5,692z"/>
	</g>
	<g>
		<g>
			<g>
				<g>
					<g>
						<g>
							<g>
								<path class="st6" d="M1029.1,594.8c-47.5,0-68.1-27-63.9-48.9c4.2-21.9,0-46.6,0-46.6c-5.2,13.5-13.2,17.7-19.9,18.5
									c-6.9,0.9-13.7-2-18.4-7.2c-18.8-20.9,4.7-52.5,18.5-67.8c4.9-5.5,8.6-8.8,8.6-8.8c70.9,30,152.7,9,152.7,9
									c0.7,2.9,1.4,5.8,2,8.7C1134.8,571.5,1075.4,594.8,1029.1,594.8z"/>
							</g>
							<g class="st7">
								<path class="st8" d="M1108.8,451.7c-0.6-2.8-1.3-5.7-2-8.7c0,0,0,0,0,0c0,0,0,0,0,0c0,0-0.1,0-0.1,0c0,0,0,0-0.1,0
									c-0.1,0-0.1,0-0.2,0.1c0,0-0.1,0-0.1,0c-0.1,0-0.1,0-0.2,0.1c-0.1,0-0.2,0-0.2,0.1c-0.1,0-0.1,0-0.2,0
									c-0.1,0-0.2,0.1-0.4,0.1c-0.1,0-0.2,0-0.2,0.1c-0.1,0-0.3,0.1-0.4,0.1c-0.1,0-0.2,0.1-0.3,0.1c-0.1,0-0.2,0.1-0.4,0.1
									c-0.1,0-0.3,0.1-0.4,0.1c-0.2,0-0.3,0.1-0.5,0.1c-0.1,0-0.2,0-0.3,0.1c-0.2,0.1-0.5,0.1-0.7,0.2c-0.1,0-0.2,0-0.3,0.1
									c-0.3,0.1-0.5,0.1-0.8,0.2c-0.1,0-0.2,0-0.3,0.1c-0.3,0.1-0.6,0.1-0.8,0.2c-0.1,0-0.3,0.1-0.4,0.1c-0.2,0-0.4,0.1-0.6,0.1
									c-0.2,0-0.3,0.1-0.5,0.1c-0.3,0.1-0.6,0.1-0.9,0.2c-0.2,0-0.3,0.1-0.5,0.1c-0.3,0.1-0.7,0.1-1,0.2c-0.2,0-0.4,0.1-0.6,0.1
									c-0.3,0.1-0.6,0.1-0.9,0.2c-0.2,0-0.5,0.1-0.7,0.1c-0.2,0-0.5,0.1-0.7,0.1c-0.4,0.1-0.7,0.1-1.1,0.2c-0.2,0-0.5,0.1-0.7,0.1
									c-0.4,0.1-0.8,0.1-1.2,0.2c0,0,0,0,0,0l0,0c-27.7,4.4-84.5,9.3-135.6-12.3c0,0-3.7,3.4-8.6,8.8c0.3,5.1,3.8,11.1,14.7,16.8
									c26.3,13.7,68.9,12.1,68.9,12.1s0,0,0,0c59.1,2.1,67.5,86.8,9.9,100c-8.1,1.9-16.4,2.6-24.3,2.6c-23.4,0-39.8-7.1-49.4-16.8
									c3.7,18.8,24.6,37.2,63.8,37.2C1075.4,594.8,1134.8,571.5,1108.8,451.7z"/>
							</g>
							<g class="st9">
								<path class="st10" d="M970.5,548.2c3.1-16.3,1.5-37.5,0.5-47.4c-0.3-2.4-3-3.7-5-2.3c-0.3,0.2-0.6,0.5-0.8,0.8
									c0.8,9.2,2.5,33.5,0,46.6c-3,15.7,6.7,34,29.9,43.1C975.7,579.3,967.7,562.7,970.5,548.2z"/>
							</g>
							<g class="st9">
								<path class="st10" d="M1106.8,443c0,0-81.9,21-152.7-9c0,0-3.7,3.4-8.6,8.8c-13.8,15.2-37.3,46.8-18.5,67.8
									c2.8,3.1,6.4,5.4,10.3,6.6c-1.8-1.1-3.5-2.6-5-4.2c-9-10-8.3-22.5-3.6-34.4c0.1,0,0.1,0.1,0.2,0.1c2.8,1.4,7.3-1.8,10.1-7.3
									c2.6-5.1,2.8-10.3,0.5-12.1c3.9-5.4,7.9-10.3,11.3-14.1c4.9-5.5,8.6-8.8,8.6-8.8c61,25.8,130.2,13.8,148.3,10
									C1107.3,445.3,1107.1,444.2,1106.8,443z"/>
							</g>
							<g>
								<path class="st8" d="M1029.1,596.8c-25.5,0-45.9-7.7-57.5-21.8c-7.2-8.8-10.3-19.5-8.4-29.6c2.8-14.4,1.8-30.2,0.9-39
									c-5.6,9.7-12.9,12.7-18.5,13.4c-7.4,0.9-14.9-2-20.2-7.9c-11.1-12.4-9.8-30.2,3.8-51.5c10-15.6,23-27.5,23.5-28
									c0.6-0.5,1.4-0.7,2.2-0.4c36.2,15.3,75.4,16.9,101.9,15.6c28.8-1.5,49.3-6.6,49.5-6.7c0.5-0.1,1.1-0.1,1.6,0.2
									c0.5,0.3,0.8,0.7,0.9,1.3c13.9,57.3,10.6,99.4-9.8,125.3C1080.2,591.8,1050.6,596.8,1029.1,596.8z M965.2,497.3
									c0.1,0,0.1,0,0.2,0c0.9,0.1,1.7,0.8,1.8,1.7c0.2,1,4.2,25.3,0,47.3c-1.7,8.8,1,18.3,7.5,26.2c10.8,13.1,30.1,20.3,54.3,20.3
									c20.6,0,48.9-4.7,66.7-27.4c19.3-24.6,22.5-64.9,9.5-119.8c-5.9,1.3-24.2,5.1-48.2,6.3c-26.7,1.4-66-0.2-102.6-15.4
									c-6.9,6.6-48.1,48.2-26,72.8c4.4,4.9,10.6,7.3,16.6,6.6c8.1-1,14.2-6.8,18.2-17.2C963.6,497.8,964.4,497.3,965.2,497.3z"/>
							</g>
						</g>
						<g>
							<g>
								<path class="st10" d="M1095.1,452.4c-25.2,13.1-66.1,11.6-66.1,11.6s-40.9,1.5-66.1-11.6c-25.2-13.1-8.9-28.1-8.9-28.1
									c-3.3-7.8,0.1-14,3-17.4c1.6-1.9,2.9-2.9,2.9-2.9s17.6,26.6,69.1,26.6h0.1c51.5,0,69.1-26.6,69.1-26.6s1.4,1.1,3,3
									c2.8,3.4,6.2,9.6,2.9,17.3C1104.1,424.3,1120.3,439.3,1095.1,452.4z"/>
							</g>
							<g class="st7">
								<path class="st8" d="M1101.2,407c-0.9,1.6-1.8,3.2-2.9,4.7c-9.5,13.3-29,26.6-69.2,26.6S969.4,425,960,411.7
									c-1.1-1.5-2.1-3.1-2.9-4.7c1.6-1.9,2.9-2.9,2.9-2.9s17.6,26.6,69.1,26.6h0.1c51.5,0,69.1-26.6,69.1-26.6
									S1099.6,405.1,1101.2,407z"/>
							</g>
							<g>
								<g class="st7">
									<path class="st8" d="M1105,414.4c-0.2,0.9-0.5,1.9-0.9,2.8c0,0,0.6,0.5,1.3,1.5C1105.5,417.2,1105.3,415.8,1105,414.4z"/>
								</g>
								<g class="st7">
									<path class="st8" d="M954.1,417.3c-0.4-1-0.7-1.9-0.9-2.8c-0.3,1.3-0.5,2.8-0.4,4.3C953.5,417.8,954.1,417.3,954.1,417.3z"
										/>
								</g>
								<g class="st7">
									<path class="st8" d="M1095.1,445.3c-25.2,13.1-66.1,11.6-66.1,11.6s-40.9,1.5-66.1-11.6c-8.6-4.5-12.3-9.1-13.6-13.3
										c-1.6,5.5-0.2,13.2,13.6,20.4c25.2,13.1,66.1,11.6,66.1,11.6s40.9,1.5,66.1-11.6c13.8-7.2,15.2-14.9,13.6-20.4
										C1107.5,436.2,1103.7,440.9,1095.1,445.3z"/>
								</g>
							</g>
							<g class="st7">
								<path class="st8" d="M976.1,419.4c0,0,4.6,3.2,2.6,12.9c-0.7,3.5-0.5,7.2,0.9,10.6c2.4,5.8,7.9,12.8,20.5,11.6
									C1023.4,452.3,1024.9,410.4,976.1,419.4z"/>
							</g>
							<g class="st7">
								<path class="st8" d="M1081.9,419.4c0,0-4.6,3.2-2.6,12.9c0.7,3.5,0.5,7.2-0.9,10.6c-2.4,5.8-7.9,12.8-20.5,11.6
									C1034.6,452.3,1033.1,410.4,1081.9,419.4z"/>
							</g>
							<g>
								<path class="st8" d="M1033.4,466.1c-2.3,0-3.9,0-4.3-0.1c-2.6,0.1-41.9,1.2-67-11.8c-9.2-4.8-14.2-10.4-15.1-16.8
									c-0.8-6.4,2.9-11.5,4.7-13.6c-3.5-10.1,3-18.4,7.1-21.4c0.5-0.3,1-0.5,1.6-0.4c0.6,0.1,1.1,0.4,1.4,0.9
									c0,0.1,4.4,6.5,14.8,12.8c9.6,5.9,26.6,12.9,52.6,12.9c26,0,42.9-7,52.6-12.9c10.4-6.4,14.8-12.8,14.8-12.9
									c0.3-0.5,0.8-0.8,1.4-0.9c0.6-0.1,1.1,0,1.6,0.4c4.1,3,10.6,11.3,7.1,21.4c1.9,2.1,5.6,7.2,4.7,13.6
									c-0.8,6.4-5.9,12-15.1,16.8C1075.3,465,1044.7,466.1,1033.4,466.1z M1029.1,461.9C1029.1,461.9,1029.1,461.9,1029.1,461.9
									c0.5,0,40.7,1.3,65.1-11.4c7.9-4.1,12.2-8.7,12.9-13.6c0.8-6.1-4.4-11-4.4-11.1c-0.6-0.6-0.8-1.5-0.5-2.3
									c3.3-7.9-1.2-13.9-3.7-16.5c-2.1,2.5-6.7,7.3-14.4,12.1c-10.1,6.2-27.8,13.6-54.9,13.6l0,0c0,0-0.1,0-0.1,0
									c-27.1,0-44.8-7.4-54.9-13.6c-7.7-4.8-12.3-9.5-14.4-12.1c-2.5,2.6-7.1,8.6-3.7,16.5c0.3,0.8,0.1,1.7-0.5,2.3
									c0,0-5.2,4.9-4.4,11.1c0.7,4.9,5,9.5,12.9,13.6C988.4,463.2,1028.6,461.9,1029.1,461.9C1029,461.9,1029,461.9,1029.1,461.9z
									"/>
							</g>
							<g>
								<path class="st8" d="M955.8,423.2l0.3,0.4l0.3,0.5c0.2,0.3,0.5,0.6,0.7,0.9c0.5,0.6,1.1,1.2,1.6,1.8
									c0.6,0.6,1.2,1.1,1.9,1.7c0.6,0.6,1.3,1,2.1,1.6l0,0c0.2,0.2,0.2,0.5,0.1,0.7c-0.1,0.1-0.2,0.2-0.4,0.2
									c-1,0-1.9-0.1-2.9-0.4c-0.9-0.3-1.8-0.7-2.7-1.2c-0.9-0.5-1.7-1-2.4-1.7c-0.4-0.3-0.7-0.7-1.1-1c-0.2-0.2-0.3-0.4-0.5-0.6
									c-0.2-0.2-0.3-0.4-0.5-0.7c-0.7-0.9-0.4-2.2,0.5-2.9C953.8,422,955,422.2,955.8,423.2L955.8,423.2z"/>
							</g>
							<g>
								<path class="st8" d="M1105.8,425.5c-0.2,0.3-0.3,0.5-0.5,0.7c-0.2,0.2-0.3,0.4-0.5,0.6c-0.3,0.4-0.7,0.7-1.1,1
									c-0.8,0.6-1.6,1.2-2.4,1.7c-0.9,0.5-1.7,0.9-2.7,1.2c-0.9,0.3-1.9,0.4-2.9,0.4c-0.3,0-0.5-0.2-0.5-0.5
									c0-0.2,0.1-0.3,0.2-0.4l0,0c0.7-0.6,1.4-1.1,2.1-1.6c0.6-0.5,1.3-1.1,1.9-1.7c0.6-0.6,1.1-1.2,1.6-1.8
									c0.3-0.3,0.5-0.6,0.7-0.9l0.3-0.5l0.3-0.4l0.1-0.1c0.7-0.9,2-1.1,2.9-0.5C1106.2,423.3,1106.4,424.6,1105.8,425.5z"/>
							</g>
						</g>
						<g>
							<g>
								<g>
									<path class="st11" d="M1014.9,307c0,0-17.3-35.4-48.2-50.9c-6.1-3.1-13.6-0.2-16,6.3c-7.2,19.1-18.1,60.2,4.9,92.9
										C955.6,355.3,972.6,320.9,1014.9,307z"/>
								</g>
								<g class="st7">
									<path class="st8" d="M966.7,256.1c-3.5-1.7-7.4-1.6-10.5,0.1c0.3,0.1,0.5,0.3,0.8,0.4c22.9,11.6,28.6,41.5,11.8,61
										c-10.5,12.2-15.9,23.9-18.2,29.6c1.4,2.8,3.1,5.5,5,8.2c0,0,17-34.4,59.3-48.3C1014.9,307,997.7,271.6,966.7,256.1z"/>
								</g>
								<g class="st9">
									<path class="st10" d="M954.8,264.1c2.1-5.6,8-8.5,13.6-7.1c-0.6-0.3-1.1-0.6-1.7-0.9c-6.1-3.1-13.6-0.2-16,6.3
										c-7.2,19.1-18.1,60.2,4.9,92.9c0,0,0.4-0.9,1.4-2.5C937.6,320.8,947.9,282.5,954.8,264.1z"/>
								</g>
								<g>
									<path class="st8" d="M955.6,357.4c-0.7,0-1.3-0.3-1.7-0.9c-10.3-14.7-15.1-32.5-14.2-52.9c0.8-17,5.3-32.2,9-42
										c1.4-3.6,4.2-6.5,7.8-7.9c3.6-1.4,7.6-1.2,11.1,0.5c31.2,15.6,48.4,50.4,49.1,51.8c0.3,0.5,0.3,1.2,0,1.7
										c-0.2,0.5-0.7,1-1.3,1.2c-40.9,13.4-58,46.9-58.1,47.3c-0.3,0.6-1,1.1-1.7,1.1C955.7,357.4,955.7,357.4,955.6,357.4z
										 M961.5,257c-1.2,0-2.4,0.2-3.5,0.7c-2.5,1-4.5,2.9-5.4,5.5c-7.5,19.9-16.9,57.3,2.8,88.3c2.1-3.5,6.1-9.5,12.5-16.4
										c8.6-9.3,23.1-21.7,44.1-29.1c-4.2-7.7-20.5-35-46.2-47.9C964.5,257.3,963,257,961.5,257z"/>
								</g>
							</g>
							<g>
								<g>
									<path class="st12" d="M1001.3,305.8c0,0-11.7-24.3-32.8-34.8c-4.2-2.1-9.2-0.1-10.9,4.3c-4.9,13.1-12.4,41.2,3.3,63.7
										C961,338.9,972.6,315.3,1001.3,305.8z"/>
								</g>
								<g class="st7">
									<path class="st8" d="M958.9,284.6c1.7-4.4,6.7-6.4,10.9-4.3c13.2,6.6,22.8,18.7,28,26.7c1.2-0.5,2.3-0.9,3.6-1.3
										c0,0-11.7-24.3-32.8-34.8c-4.2-2.1-9.2-0.1-10.9,4.3c-3.6,9.5-8.5,27-4.9,44.4C952.1,305.6,955.9,292.4,958.9,284.6z"/>
								</g>
								<g>
									<path class="st8" d="M961,341c-0.7,0-1.3-0.3-1.7-0.9c-15.9-22.8-9-50.9-3.5-65.6c1-2.6,3.1-4.8,5.7-5.8
										c2.6-1,5.5-0.9,8.1,0.4c21.4,10.8,33.2,34.8,33.7,35.8c0.3,0.5,0.3,1.2,0,1.7c-0.2,0.5-0.7,1-1.2,1.2
										c-27.6,9.1-39.1,31.9-39.2,32.1c-0.3,0.7-1,1.1-1.7,1.1C961.1,341,961,341,961,341z M965.1,272.1c-0.7,0-1.4,0.1-2.1,0.4
										c-1.6,0.6-2.8,1.8-3.3,3.4c-5,13.3-11.3,38.2,1.2,59c4.1-6.6,15.7-22.3,37.6-30.3c-3.3-6-14.1-23.5-30.7-31.8
										C966.8,272.4,966,272.1,965.1,272.1z"/>
								</g>
							</g>
						</g>
						<g>
							<g>
								<g>
									<path class="st11" d="M1043.3,307c0,0,17.3-35.4,48.2-50.9c6.1-3.1,13.6-0.2,16,6.3c7.2,19.1,18.1,60.2-4.9,92.9
										C1102.6,355.3,1085.6,320.9,1043.3,307z"/>
								</g>
								<g class="st7">
									<path class="st8" d="M1091.5,256.1c3.5-1.7,7.4-1.6,10.5,0.1c-0.3,0.1-0.5,0.3-0.8,0.4c-22.9,11.6-28.6,41.5-11.8,61
										c10.5,12.2,15.9,23.9,18.2,29.6c-1.4,2.8-3.1,5.5-5,8.2c0,0-17-34.4-59.3-48.3C1043.3,307,1060.5,271.6,1091.5,256.1z"/>
								</g>
								<g>
									<path class="st8" d="M1102.6,357.4c-0.1,0-0.1,0-0.2,0c-0.7-0.1-1.4-0.5-1.7-1.1c-0.2-0.3-17.2-33.8-58.1-47.3
										c-0.6-0.2-1-0.6-1.3-1.2c-0.2-0.5-0.2-1.2,0-1.7c0.7-1.5,17.9-36.2,49.1-51.8c3.5-1.7,7.5-1.9,11.1-0.5
										c3.6,1.4,6.4,4.3,7.8,7.9c3.7,9.8,8.3,25,9,42c0.9,20.4-3.9,38.2-14.2,52.9C1103.9,357.1,1103.3,357.4,1102.6,357.4z
										 M1046.2,305.8c21,7.4,35.5,19.9,44.1,29.1c6.3,6.9,10.4,13,12.5,16.4c19.7-31,10.4-68.4,2.8-88.3c-1-2.5-2.9-4.5-5.4-5.5
										c-2.5-1-5.3-0.9-7.7,0.3C1066.7,270.8,1050.4,298.1,1046.2,305.8z"/>
								</g>
							</g>
							<g>
								<g>
									<path class="st12" d="M1056.9,305.8c0,0,11.7-24.3,32.8-34.8c4.2-2.1,9.2-0.1,10.9,4.3c4.9,13.1,12.4,41.2-3.3,63.7
										C1097.3,338.9,1085.7,315.3,1056.9,305.8z"/>
								</g>
								<g class="st7">
									<path class="st8" d="M1099.4,284.6c-1.7-4.4-6.7-6.4-10.9-4.3c-13.2,6.6-22.8,18.7-28,26.7c-1.2-0.5-2.3-0.9-3.6-1.3
										c0,0,11.7-24.3,32.8-34.8c4.2-2.1,9.2-0.1,10.9,4.3c3.6,9.5,8.5,27,4.9,44.4C1106.1,305.6,1102.3,292.4,1099.4,284.6z"/>
								</g>
								<g>
									<path class="st8" d="M1097.3,341c-0.1,0-0.1,0-0.2,0c-0.7-0.1-1.4-0.5-1.7-1.1c-0.1-0.2-11.6-23-39.2-32.1
										c-0.6-0.2-1-0.6-1.2-1.2c-0.2-0.5-0.2-1.2,0-1.7c0.5-1,12.3-25,33.7-35.8c2.5-1.3,5.4-1.4,8.1-0.4c2.6,1,4.7,3.1,5.7,5.8
										c5.5,14.7,12.4,42.7-3.5,65.6C1098.6,340.6,1097.9,341,1097.3,341z M1059.8,304.6c21.9,8,33.5,23.7,37.6,30.3
										c12.5-20.8,6.2-45.7,1.2-59c-0.6-1.6-1.8-2.8-3.3-3.4c-1.6-0.6-3.2-0.5-4.7,0.2C1073.9,281.1,1063.1,298.6,1059.8,304.6z"
										/>
								</g>
							</g>
						</g>
						<g>
							<g>
								<path class="st11" d="M1098.3,404.1c-9.5,13.3-29,26.6-69.2,26.6s-59.7-13.3-69.2-26.6c-4-5.7-6.6-12.1-7.8-18.8
									c-0.9-5.1-1-10.4-0.2-15.7c3.4-23.2,12.2-39.6,22.7-51.1c29.1-31.9,79.7-31.9,108.8,0c10.5,11.5,19.4,27.9,22.7,51.1
									C1108,381.7,1105.4,394.1,1098.3,404.1z"/>
							</g>
							<g>
								<path class="st10" d="M1106.1,385.2c0,0-11.4-9.5-28-1.1c-10.8,5.5-24,2.7-31.3-7.1c-5.2-7-10.4-17.7-14.6-33.7
									c-0.8-3.3-5.5-3.3-6.3,0c-4.1,16-9.4,26.6-14.6,33.7c-7.2,9.8-20.4,12.6-31.3,7.1c-16.5-8.4-28,1.1-28,1.1l0,0
									c1.2,6.7,3.8,13.2,7.8,18.8c9.5,13.3,29,26.6,69.2,26.6s59.7-13.3,69.2-26.6C1102.3,398.4,1104.9,392,1106.1,385.2
									L1106.1,385.2z"/>
							</g>
							<g class="st7">
								<path class="st8" d="M1106.3,369.6c-3.2-21.9-11.3-37.8-21-49.2c5.4,9.6,9.5,21.3,11.6,35.6c1.8,12.1-0.9,24.5-8,34.5
									c-9.5,13.3-29,26.6-69.2,26.6c-34,0-53.2-9.5-64-20.6c1.2,2.6,2.6,5.1,4.3,7.4c9.5,13.3,29,26.6,69.2,26.6
									s59.7-13.3,69.2-26.6C1105.4,394.1,1108,381.7,1106.3,369.6z"/>
							</g>
							<g class="st9">
								<path class="st10" d="M1083.5,318.5c-29.1-31.9-79.7-31.9-108.8,0c-10.5,11.5-19.4,27.9-22.7,51.1
									c-0.8,5.2-0.7,10.5,0.2,15.7c1.2,6.7,3.8,13.2,7.8,18.8c0.8,1.1,1.6,2.2,2.6,3.3c-3.5-5.3-5.8-11.2-6.9-17.4
									c-0.9-5.1-1-10.4-0.2-15.7c3.2-22.2,11.5-38.1,21.4-49.6c2.3,1.5,7.3-0.4,11.8-4.4c4.1-3.7,6.4-7.9,5.9-10.5
									c29.2-17.5,68.3-13.1,92.5,13.4c1.1,1.2,2.2,2.4,3.2,3.7C1088.1,323.9,1085.9,321,1083.5,318.5z"/>
							</g>
							<g class="st7">
								<path class="st8" d="M1052.6,386.2c0,0-2.3,7.7-10.5,7.7c-8.2,0-8.3-9.8-8.3-9.8h-4.7h-4.7c0,0-0.1,9.8-8.3,9.8
									c-8.2,0-10.5-7.7-10.5-7.7s-6.4,13.7,4.9,17.9c11.2,4.2,18.6-2.3,18.6-2.3s7.4,6.4,18.6,2.3
									C1058.9,399.9,1052.6,386.2,1052.6,386.2z"/>
							</g>
							<g>
								<path class="st8" d="M1029.1,432.8c-18.6,0-34.4-2.9-46.9-8.5c-10.1-4.6-18.2-11-23.9-19c-7.3-10.3-10.3-23-8.4-36
									c3.1-21.1,10.9-38.7,23.3-52.2c14.3-15.6,34.7-24.6,55.9-24.6c21.3,0,41.7,9,55.9,24.6c12.3,13.5,20.2,31.1,23.3,52.2l0,0
									c1.9,12.9-1.1,25.7-8.4,36c-5.7,8-13.8,14.4-23.9,19C1063.5,429.9,1047.7,432.8,1029.1,432.8z M1029.1,296.6
									c-20.1,0-39.4,8.5-52.9,23.2c-11.8,12.9-19.3,29.7-22.2,50c-1.7,11.9,1,23.6,7.7,33c12,16.9,35.3,25.8,67.5,25.8
									s55.5-8.9,67.5-25.8c6.7-9.4,9.4-21.1,7.7-33l0,0c-3-20.3-10.4-37.1-22.2-50C1068.5,305.1,1049.2,296.6,1029.1,296.6z"/>
							</g>
							<g>
								<path class="st8" d="M1039.2,380.6c-0.7-4.1-10.1-4.2-10.1-4.2s-9.4,0.1-10.1,4.2c-0.7,4.1,4.4,9.2,10.1,9.2
									C1034.8,389.8,1039.9,384.7,1039.2,380.6z"/>
							</g>
							<g>
								<path class="st8" d="M1031.1,388.5c0,0.1,0,0.3,0,0.4c0,0.2,0,0.3,0,0.5c0,0.3,0.1,0.7,0.1,1c0.1,0.7,0.3,1.3,0.5,2
									c0.5,1.2,1.2,2.3,2.2,3.1c1,0.8,2.2,1.4,3.5,1.8c1.4,0.3,2.9,0.5,4.3,0.5c0.4,0,0.7,0,1.1,0c0.4,0,0.7-0.1,1.1-0.1
									c0.4,0,0.7-0.1,1-0.2c0.3-0.1,0.7-0.2,1-0.3c1.3-0.5,2.3-1.3,3.2-2.4c1.7-2.1,2.4-5.3,2.8-8.5l0,0c0-0.3,0.3-0.5,0.6-0.5
									c0.2,0,0.4,0.2,0.5,0.4c0.6,1.7,0.8,3.5,0.6,5.3c-0.1,1.8-0.7,3.7-1.7,5.3c-1,1.7-2.7,3-4.4,3.8c-1.8,0.9-3.7,1.2-5.5,1.3
									c-1.8,0.1-3.6,0-5.5-0.4c-1.8-0.4-3.7-1.3-5.3-2.6c-0.8-0.7-1.5-1.4-2-2.3c-0.6-0.8-1-1.7-1.4-2.7c-0.3-0.9-0.6-1.9-0.7-2.8
									c-0.1-0.5-0.1-1-0.1-1.4c0-0.2,0-0.5,0-0.7c0-0.3,0-0.5,0-0.8c0.1-1.1,1.1-2,2.2-1.9c1.1,0.1,1.9,1,1.9,2L1031.1,388.5z"/>
							</g>
							<g>
								<path class="st8" d="M1031.1,388.1c0,0.4,0,0.6,0,0.8c0,0.2,0,0.5,0,0.7c0,0.5-0.1,1-0.1,1.4c-0.1,1-0.4,1.9-0.7,2.8
									c-0.3,0.9-0.8,1.8-1.4,2.7c-0.6,0.8-1.3,1.6-2,2.3c-1.6,1.3-3.4,2.1-5.3,2.6c-1.9,0.4-3.7,0.5-5.5,0.4
									c-1.8-0.1-3.7-0.4-5.5-1.3c-1.8-0.8-3.4-2.2-4.4-3.8c-1.1-1.7-1.6-3.5-1.7-5.3c-0.1-1.8,0-3.6,0.6-5.3
									c0.1-0.3,0.4-0.5,0.7-0.4c0.2,0.1,0.4,0.3,0.4,0.5l0,0.1c0.4,3.2,1.1,6.3,2.8,8.5c0.8,1.1,1.9,1.9,3.2,2.4
									c0.3,0.1,0.6,0.2,1,0.3c0.3,0.1,0.7,0.2,1,0.2c0.4,0.1,0.7,0.1,1.1,0.1c0.4,0,0.7,0.1,1.1,0c1.5,0,3-0.2,4.3-0.5
									c1.4-0.4,2.6-1,3.5-1.8c1-0.8,1.7-1.9,2.2-3.1c0.2-0.6,0.4-1.3,0.5-2c0.1-0.3,0.1-0.7,0.1-1c0-0.2,0-0.3,0-0.5
									c0-0.2,0-0.4,0-0.4l0-0.2c0-1.1,1-2,2.1-2C1030.2,386.2,1031,387.1,1031.1,388.1z"/>
							</g>
						</g>
						<g>
							<g>
								<path class="st10" d="M1062.7,407.1c0,3.5-2.8,6.4-6.3,6.4c-2.6,0-4.8-1.5-5.8-3.7h-42.9c-1,2.2-3.2,3.7-5.8,3.7
									c-3.5,0-6.3-2.8-6.3-6.4c0-2,0.9-3.7,2.3-4.9c-1.4-1.2-2.3-2.9-2.3-4.9c0-3.5,2.8-6.3,6.3-6.3c2.3,0,4.3,1.2,5.4,3h43.7
									c1.1-1.8,3.1-3,5.4-3c3.5,0,6.3,2.8,6.3,6.3c0,2-0.9,3.7-2.3,4.9C1061.8,403.3,1062.7,405.1,1062.7,407.1z"/>
							</g>
							<g class="st7">
								<g>
									<path class="st8" d="M1056.4,408.1c-2.6,0-4.8-1.5-5.8-3.7h-42.9c-1,2.2-3.2,3.7-5.8,3.7c-2.6,0-4.8-1.5-5.8-3.7
										c-0.4,0.8-0.6,1.7-0.6,2.6c0,3.5,2.8,6.4,6.3,6.4c2.6,0,4.8-1.5,5.8-3.7h42.9c1,2.2,3.2,3.7,5.8,3.7c3.5,0,6.3-2.8,6.3-6.4
										c0-0.9-0.2-1.8-0.6-2.6C1061.1,406.6,1058.9,408.1,1056.4,408.1z"/>
								</g>
								<g>
									<path class="st8" d="M997.8,396.9c-0.7-0.6-1.3-1.4-1.7-2.3c-0.4,0.8-0.6,1.7-0.6,2.6c0,0.8,0.2,1.6,0.4,2.3
										C996.3,398.5,997,397.6,997.8,396.9z"/>
								</g>
								<g>
									<path class="st8" d="M1060.4,396.9c0.8,0.7,1.5,1.6,1.9,2.6c0.3-0.7,0.4-1.5,0.4-2.3c0-0.9-0.2-1.8-0.6-2.6
										C1061.7,395.5,1061.1,396.3,1060.4,396.9z"/>
								</g>
							</g>
							<g>
								<path class="st8" d="M1056.4,415.2c-2.8,0-5.4-1.4-6.8-3.7h-40.9c-1.5,2.3-4,3.7-6.8,3.7c-4.5,0-8.1-3.6-8.1-8.1
									c0-1.8,0.6-3.5,1.6-4.9c-1.1-1.4-1.6-3.1-1.6-4.9c0-4.5,3.6-8.1,8.1-8.1c2.5,0,4.8,1.1,6.3,3h41.9c1.5-1.9,3.8-3,6.3-3
									c4.5,0,8.1,3.6,8.1,8.1c0,1.8-0.6,3.5-1.6,4.9c1.1,1.4,1.6,3.1,1.6,4.9C1064.5,411.5,1060.8,415.2,1056.4,415.2z
									 M1007.6,407.9h42.9c0.7,0,1.3,0.4,1.6,1c0.7,1.6,2.4,2.7,4.2,2.7c2.5,0,4.6-2.1,4.6-4.6c0-1.4-0.6-2.7-1.7-3.5
									c-0.4-0.3-0.6-0.8-0.6-1.4c0-0.5,0.2-1,0.6-1.4c1.1-0.9,1.7-2.2,1.7-3.5c0-2.5-2.1-4.6-4.6-4.6c-1.6,0-3,0.8-3.9,2.2
									c-0.3,0.5-0.9,0.8-1.5,0.8h-43.7c-0.6,0-1.2-0.3-1.5-0.8c-0.8-1.3-2.3-2.2-3.9-2.2c-2.5,0-4.6,2.1-4.6,4.6
									c0,1.4,0.6,2.7,1.7,3.5c0.4,0.3,0.6,0.8,0.6,1.4s-0.2,1-0.6,1.4c-1.1,0.9-1.7,2.2-1.7,3.5c0,2.5,2.1,4.6,4.6,4.6
									c1.8,0,3.4-1.1,4.2-2.7C1006.3,408.3,1006.9,407.9,1007.6,407.9z"/>
							</g>
						</g>
						<g>
							<g>
								<path class="st10" d="M1052.6,386.2c0,0-2.5,5.9-11,5.9s-7.9-11.2-7.9-11.2h-4.6h-4.6c0,0,0.6,11.2-7.9,11.2
									c-8.5,0-11-5.9-11-5.9s-1.7,13.6,10,13.6s13.5-8.1,13.5-8.1s1.9,8.1,13.5,8.1C1054.3,399.8,1052.6,386.2,1052.6,386.2z"/>
							</g>
							<g>
								<path class="st8" d="M1039.2,380.6c-0.7-4.1-10.1-4.2-10.1-4.2s-9.4,0.1-10.1,4.2c-0.7,4.1,4.4,9.2,10.1,9.2
									C1034.8,389.8,1039.9,384.7,1039.2,380.6z"/>
							</g>
							<g>
								<path class="st8" d="M1031.1,388.5c0,0.1,0,0.3,0,0.4c0,0.2,0,0.3,0,0.5c0,0.3,0.1,0.7,0.1,1c0.1,0.7,0.3,1.3,0.5,2
									c0.5,1.2,1.2,2.3,2.2,3.1c1,0.8,2.2,1.4,3.5,1.8c1.4,0.3,2.9,0.5,4.3,0.5c0.4,0,0.7,0,1.1,0c0.4,0,0.7-0.1,1.1-0.1
									c0.4,0,0.7-0.1,1-0.2c0.3-0.1,0.7-0.2,1-0.3c1.3-0.5,2.3-1.3,3.2-2.4c1.7-2.1,2.4-5.3,2.8-8.5l0,0c0-0.3,0.3-0.5,0.6-0.5
									c0.2,0,0.4,0.2,0.5,0.4c0.6,1.7,0.8,3.5,0.6,5.3c-0.1,1.8-0.7,3.7-1.7,5.3c-1,1.7-2.7,3-4.4,3.8c-1.8,0.9-3.7,1.2-5.5,1.3
									c-1.8,0.1-3.6,0-5.5-0.4c-1.8-0.4-3.7-1.3-5.3-2.6c-0.8-0.7-1.5-1.4-2-2.3c-0.6-0.8-1-1.7-1.4-2.7c-0.3-0.9-0.6-1.9-0.7-2.8
									c-0.1-0.5-0.1-1-0.1-1.4c0-0.2,0-0.5,0-0.7c0-0.3,0-0.5,0-0.8c0.1-1.1,1.1-2,2.2-1.9c1.1,0.1,1.9,1,1.9,2L1031.1,388.5z"/>
							</g>
							<g>
								<path class="st8" d="M1031.1,388.1c0,0.4,0,0.6,0,0.8c0,0.2,0,0.5,0,0.7c0,0.5-0.1,1-0.1,1.4c-0.1,1-0.4,1.9-0.7,2.8
									c-0.3,0.9-0.8,1.8-1.4,2.7c-0.6,0.8-1.3,1.6-2,2.3c-1.6,1.3-3.4,2.1-5.3,2.6c-1.9,0.4-3.7,0.5-5.5,0.4
									c-1.8-0.1-3.7-0.4-5.5-1.3c-1.8-0.8-3.4-2.2-4.4-3.8c-1.1-1.7-1.6-3.5-1.7-5.3c-0.1-1.8,0-3.6,0.6-5.3
									c0.1-0.3,0.4-0.5,0.7-0.4c0.2,0.1,0.4,0.3,0.4,0.5l0,0.1c0.4,3.2,1.1,6.3,2.8,8.5c0.8,1.1,1.9,1.9,3.2,2.4
									c0.3,0.1,0.6,0.2,1,0.3c0.3,0.1,0.7,0.2,1,0.2c0.4,0.1,0.7,0.1,1.1,0.1c0.4,0,0.7,0.1,1.1,0c1.5,0,3-0.2,4.3-0.5
									c1.4-0.4,2.6-1,3.5-1.8c1-0.8,1.7-1.9,2.2-3.1c0.2-0.6,0.4-1.3,0.5-2c0.1-0.3,0.1-0.7,0.1-1c0-0.2,0-0.3,0-0.5
									c0-0.2,0-0.4,0-0.4l0-0.2c0-1.1,1-2,2.1-2C1030.2,386.2,1031,387.1,1031.1,388.1z"/>
							</g>
							<g>
								<g class="st7">
									<path class="st8" d="M1016.8,399.8c10.7,0,12.1-7.5,12.3-10.4c0-0.7,0-1.2,0-1.2s0,0.4,0,1.2c0.2,2.9,1.6,10.4,12.3,10.4
										c12.6,0,11.4-12.3,11.2-13.5c0-0.1,0-0.1,0-0.1s-2.3,7.7-10.5,7.7c-8.2,0-8.3-9.8-8.3-9.8h-4.7h-4.7c0,0-0.1,9.8-8.3,9.8
										c-8.2,0-10.5-7.7-10.5-7.7S1003.5,399.8,1016.8,399.8z"/>
								</g>
								<g class="st7">
									<path class="st8" d="M1029.1,388.3c0,0,0,0.4,0,1.2C1029.1,388.7,1029.1,388.3,1029.1,388.3z"/>
								</g>
							</g>
						</g>
						<ellipse class="st13" cx="1028.1" cy="380.5" rx="4.1" ry="1.3"/>
						<g>
							<g>
								<path class="st10" d="M975.5,418.4c0,0,4.5,2.5,3.6,11.6c-0.3,3.3,0.2,6.7,1.8,9.6c2.7,5.1,8.4,11,19.9,8.8
									C1022,444.3,1019.5,405.8,975.5,418.4z"/>
							</g>
							<g class="st7">
								<path class="st8" d="M1007.6,438.8c-10.5,5.1-17.5,0.7-21.5-3.5c-2.3-2.5-3.6-5.6-4.1-8.9c-0.7-4.6-2.4-7.2-3.8-8.7
									c-0.9,0.2-1.7,0.4-2.7,0.7c0,0,4.5,2.5,3.6,11.6c-0.3,3.3,0.2,6.7,1.8,9.6c2.7,5.1,8.4,11,19.9,8.8c8-1.6,12.6-8,12.9-14.7
									C1012.2,435.8,1010.2,437.5,1007.6,438.8z"/>
							</g>
							<g>
								<path class="st8" d="M996.1,451c-9.8,0-14.7-6.2-17-10.4c-1.7-3.2-2.4-6.9-2-10.8c0.8-7.4-2.5-9.6-2.6-9.6
									c-0.7-0.4-1.1-1.2-1.1-2c0.1-0.8,0.7-1.5,1.5-1.7c21.5-6.2,31.6-0.1,35.7,4.1c4.6,4.7,6.2,11.5,4.3,17.7
									c-2,6.3-7.1,10.9-13.8,12.2C999.4,450.9,997.6,451,996.1,451z M979.3,419.5c1.3,2.1,2.4,5.5,1.9,10.7
									c-0.3,3.1,0.2,6,1.5,8.4c3.6,6.7,9.5,9.3,17.7,7.7c5.2-1,9.1-4.5,10.6-9.4c1.5-4.8,0.2-10-3.3-13.6
									C1004.5,420.1,996.5,415.4,979.3,419.5z"/>
							</g>
							<g>
								<path class="st8" d="M992.6,448c0,0,0-0.1,0.1-0.2l0.1-0.2l0.2-0.5l0.4-1c0.2-0.7,0.5-1.4,0.7-2.2c0.1-0.4,0.2-0.8,0.3-1.1
									l0.2-0.6c0-0.2,0.1-0.4,0.1-0.6c0.2-0.8,0.3-1.6,0.6-2.5l0,0c0.1-0.3,0.3-0.4,0.6-0.4c0.1,0,0.2,0.1,0.3,0.2
									c0.5,0.8,0.9,1.7,1.1,2.6c0.3,0.9,0.4,1.8,0.4,2.8c0,0.9,0,1.9-0.2,2.9c-0.1,0.5-0.2,0.9-0.4,1.4c-0.1,0.2-0.2,0.5-0.3,0.7
									c-0.1,0.1-0.1,0.2-0.2,0.4c-0.1,0.1-0.1,0.2-0.2,0.4c0,0-0.1,0-0.1,0L992.6,448z"/>
							</g>
							<g>
								<path class="st8" d="M1003.7,445.6c0,0,0-0.1,0-0.2l0.1-0.2l0.2-0.5l0.3-1.1c0.2-0.7,0.4-1.5,0.6-2.2
									c0.1-0.4,0.2-0.8,0.2-1.2l0.1-0.6c0-0.2,0.1-0.4,0.1-0.6c0.2-0.8,0.3-1.6,0.5-2.5l0,0c0.1-0.3,0.3-0.4,0.6-0.4
									c0.1,0,0.2,0.1,0.3,0.2c0.5,0.8,0.9,1.6,1.2,2.5c0.3,0.9,0.4,1.8,0.5,2.8c0.1,0.9,0,1.9-0.1,2.9c-0.1,0.5-0.2,1-0.3,1.4
									c-0.1,0.2-0.1,0.5-0.2,0.7c0,0.1-0.1,0.2-0.2,0.4c-0.1,0.1-0.1,0.2-0.2,0.4c0,0-0.1,0-0.1,0L1003.7,445.6z"/>
							</g>
						</g>
						<g>
							<g>
								<path class="st10" d="M1082.7,418.4c0,0-4.5,2.5-3.6,11.6c0.3,3.3-0.2,6.7-1.8,9.6c-2.7,5.1-8.4,11-19.9,8.8
									C1036.3,444.3,1038.7,405.8,1082.7,418.4z"/>
							</g>
							<g class="st7">
								<path class="st8" d="M1050.7,438.8c10.5,5.1,17.5,0.7,21.5-3.5c2.3-2.5,3.6-5.6,4.1-8.9c0.7-4.6,2.4-7.2,3.8-8.7
									c0.9,0.2,1.7,0.4,2.7,0.7c0,0-4.5,2.5-3.6,11.6c0.3,3.3-0.2,6.7-1.8,9.6c-2.7,5.1-8.4,11-19.9,8.8c-8-1.6-12.6-8-12.9-14.7
									C1046,435.8,1048,437.5,1050.7,438.8z"/>
							</g>
							<g>
								<path class="st8" d="M1062.2,451c-1.6,0-3.3-0.2-5.1-0.5c-6.7-1.3-11.8-5.9-13.8-12.2c-1.9-6.3-0.3-13,4.3-17.7
									c4.1-4.2,14.2-10.3,35.7-4.1c0.8,0.2,1.4,0.9,1.5,1.7c0.1,0.8-0.3,1.6-1,2c-0.2,0.1-3.3,2.3-2.6,9.6c0.4,3.9-0.3,7.6-2,10.8
									C1076.9,444.8,1072,451,1062.2,451z M1066.6,417.9c-8.9,0-13.7,3.1-16.1,5.6c-3.5,3.6-4.8,8.8-3.3,13.6
									c1.5,4.9,5.5,8.4,10.6,9.4c8.1,1.6,14.1-1,17.7-7.7c1.3-2.5,1.8-5.4,1.5-8.4c-0.5-5.2,0.6-8.6,1.9-10.7
									C1074.1,418.4,1070,417.9,1066.6,417.9z"/>
							</g>
							<g>
								<path class="st8" d="M1062,449.9c-0.1-0.2-0.2-0.3-0.2-0.4c-0.1-0.1-0.1-0.2-0.2-0.4c-0.1-0.2-0.2-0.5-0.3-0.7
									c-0.2-0.5-0.3-0.9-0.4-1.4c-0.2-0.9-0.3-1.9-0.2-2.9c0-0.9,0.1-1.9,0.4-2.8c0.2-0.9,0.6-1.8,1.1-2.6
									c0.1-0.2,0.5-0.3,0.7-0.2c0.1,0.1,0.2,0.2,0.2,0.3l0,0c0.2,0.9,0.4,1.7,0.6,2.5c0.1,0.2,0.1,0.4,0.1,0.6l0.2,0.6
									c0.1,0.4,0.2,0.8,0.3,1.1c0.2,0.8,0.4,1.5,0.7,2.2l0.4,1l0.2,0.5l0.1,0.2c0,0.1,0.1,0.2,0.1,0.2L1062,449.9
									C1062.1,450,1062.1,450,1062,449.9z"/>
							</g>
							<g>
								<path class="st8" d="M1050.8,447.4c-0.1-0.2-0.1-0.3-0.2-0.4c-0.1-0.1-0.1-0.2-0.2-0.4c-0.1-0.2-0.2-0.5-0.2-0.7
									c-0.1-0.5-0.3-0.9-0.3-1.4c-0.2-1-0.2-1.9-0.1-2.9c0.1-0.9,0.2-1.9,0.5-2.8c0.3-0.9,0.7-1.8,1.2-2.5
									c0.2-0.2,0.5-0.3,0.7-0.1c0.1,0.1,0.2,0.2,0.2,0.3l0,0c0.2,0.9,0.3,1.7,0.5,2.5c0,0.2,0.1,0.4,0.1,0.6l0.1,0.6
									c0.1,0.4,0.2,0.8,0.2,1.2c0.2,0.8,0.4,1.5,0.6,2.2l0.3,1.1l0.2,0.5l0.1,0.2c0,0.1,0.1,0.2,0,0.2L1050.8,447.4
									C1050.9,447.4,1050.8,447.4,1050.8,447.4z"/>
							</g>
						</g>
						<g>
							
								<ellipse transform="matrix(0.9864 -0.1645 0.1645 0.9864 -42.2533 178.8925)" class="st10" cx="1058.7" cy="344.5" rx="5.7" ry="3.6"/>
						</g>
						<g>
							
								<ellipse transform="matrix(0.1645 -0.9864 0.9864 0.1645 498.752 1274.2915)" class="st10" cx="1001.6" cy="342.7" rx="3.6" ry="5.7"/>
						</g>
						<g>
							<g>
								
									<ellipse transform="matrix(0.1218 -0.9926 0.9926 0.1218 512.4966 1311.3177)" class="st8" cx="997.3" cy="366" rx="12.7" ry="9.6"/>
							</g>
							<g>
								
									<ellipse transform="matrix(0.1218 -0.9926 0.9926 0.1218 516.8185 1312.146)" class="st10" cx="999.9" cy="364" rx="3.7" ry="2.8"/>
							</g>
						</g>
						<g>
							<path class="st8" d="M1071.9,362c-1.7,0.4-3.4,0.9-5,1.5c-1.6,0.6-3.1,1.3-4.6,2.1c-0.7,0.4-1.4,0.9-2.1,1.3l-1,0.7
								c-0.2,0.1-0.3,0.2-0.5,0.4l-0.4,0.4c-1.2,1-2.3,2.3-3.3,3.5l-2.7-3.4c0.2-0.1,0.3-0.1,0.4-0.1c0.1,0,0.2-0.1,0.3-0.1
								c0.2-0.1,0.4-0.1,0.6-0.1c0.4-0.1,0.8-0.2,1.2-0.2c0.8-0.1,1.6-0.2,2.4-0.2c1.6-0.1,3.2,0.1,4.7,0.5c1.5,0.4,3,0.9,4.4,1.7
								c1.4,0.7,2.6,1.7,3.6,2.8c0.3,0.3,0.3,0.8,0,1.1c-0.2,0.2-0.6,0.3-0.8,0.2l-0.1,0c-0.7-0.3-1.3-0.6-1.9-0.8
								c-0.6-0.2-1.3-0.5-1.9-0.6c-1.3-0.4-2.6-0.6-3.8-0.6c-1.3-0.1-2.6,0-3.8,0.1c-0.6,0.1-1.2,0.2-1.9,0.3
								c-0.3,0.1-0.6,0.1-0.9,0.2c-0.1,0-0.3,0.1-0.4,0.1c-0.1,0-0.1,0-0.2,0.1l-0.1,0.1l-0.1,0c-1.2,0.4-2.5-0.2-2.9-1.3
								c-0.3-0.7-0.1-1.5,0.3-2.1c1.2-1.6,2.4-3.3,4-4.5c0.7-0.7,1.6-1.2,2.5-1.8c0.9-0.5,1.8-1,2.7-1.3c1.8-0.8,3.8-1.3,5.7-1.5
								c2-0.2,3.9-0.2,5.8,0.3c0.4,0.1,0.7,0.5,0.6,1C1072.5,361.7,1072.3,361.9,1071.9,362L1071.9,362z"/>
						</g>
					</g>
				</g>
			</g>
		</g>
		<g>
			<g>
				<g>
					<g>
						<g>
							<path class="st1" d="M1163.1,206c-117.6-73.4-272.5-37.6-345.9,80c-73.4,117.6-37.6,272.5,80,345.9
								c117.6,73.4,272.5,37.6,345.9-80C1316.6,434.3,1280.7,279.5,1163.1,206z M1213.4,533.4c-63.2,101.2-196.4,132-297.6,68.8
								c-101.2-63.2-132-196.4-68.8-297.6c63.2-101.2,196.4-132,297.6-68.8C1245.7,299,1276.5,432.2,1213.4,533.4z"/>
							<ellipse class="st14" cx="1026.7" cy="421.1" rx="219.5" ry="218.1"/>
						</g>
					</g>
					<g>
						<g class="st15">
							<path class="st10" d="M874.5,410.3c-1.1-68.9,43.7-131.2,110.1-150.3c66.3-19.1,138.5,10.2,173.4,69.7
								c9.8,16.8,36.6,2.8,26.7-14c-40.1-68.5-119.7-103.9-197.3-87.4c-76.5,16.3-132.9,82-142.1,158.8c-0.9,7.4-1.1,14.9-1,22.4
								C844.6,428.8,874.8,429.8,874.5,410.3L874.5,410.3z"/>
						</g>
						
							<ellipse transform="matrix(0.9914 -0.131 0.131 0.9914 -38.9863 159.4863)" class="st3" cx="1192.6" cy="376" rx="19.9" ry="19.9"/>
					</g>
				</g>
				<g>
					<path class="st16" d="M1240.8,420.5c-0.2,51.9-19,102.2-53.3,141.3c-33.8,38.5-81,63.4-131.6,70.6
						c-51.8,7.3-105.3-5.8-148.6-34.8c-42.2-28.3-72.9-71.9-86.4-120.7c-14-50.6-8.2-105.8,15.4-152.7
						c22.7-45.1,61.8-81.4,108.4-100.9c48.6-20.4,103.8-21.6,153.5-4.4c47.9,16.6,88.5,51,114,94.7
						C1231.1,345.9,1240.7,383.1,1240.8,420.5c0,7.4,11.5,7.4,11.5,0c-0.2-52-18.2-102.1-50.8-142.5
						c-31.9-39.5-77.6-67.1-127.1-77.7c-51.3-11.1-105.6-3.4-152.1,20.9c-44.7,23.3-80.7,62.3-101.1,108.2
						c-21.3,48.1-24.9,103-10.5,153.5c13.9,48.8,44.9,91.5,85.9,121.2c42.2,30.4,94.9,44.7,146.7,41.1
						c51.3-3.5,100.1-25.2,137.8-60.2c45.5-42.2,71.2-102.6,71.4-164.5C1252.4,413.1,1240.9,413.1,1240.8,420.5z"/>
				</g>
			</g>
		</g>
	</g>
</g>
</svg>
